<?xml version="1.0"?>
<svg xmlns:rdf="http://www.w3.org/1999/02/22-rdf-syntax-ns#" xmlns="http://www.w3.org/2000/svg" xmlns:cc="http://creativecommons.org/ns#" xmlns:dc="http://purl.org/dc/elements/1.1/" xmlns:svg="http://www.w3.org/2000/svg" id="svg2" viewBox="0 0 809.59 907.24" version="1.0">
  <g id="layer1" transform="translate(29.684 21.307)">
    <path id="path2966" d="m-29.684-19.748v905.68h809.59v-907.24l-809.59 1.562z" fill="#f1cb9d" fill-rule="evenodd"/>
    <path id="path2299" d="m15.685 18.911h711.68" stroke="#000" stroke-linecap="square" stroke-width="4" fill="none"/>
    <path id="path2301" d="m15.685 111.43h711.68" stroke="#000" stroke-linecap="square" stroke-width="4" fill="none"/>
    <path id="path2303" d="m15.685 203.95h711.68" stroke="#000" stroke-linecap="square" stroke-width="4" fill="none"/>
    <path id="path2305" d="m15.685 296.47h711.68" stroke="#000" stroke-linecap="square" stroke-width="4" fill="none"/>
    <path id="path2307" d="m16.609 388.99h710.75" stroke="#000" stroke-linecap="square" stroke-width="4" fill="none"/>
    <path id="path2309" d="m16.917 481.51h710.44" stroke="#000" stroke-linecap="square" stroke-width="4" fill="none"/>
    <path id="path2311" d="m16.917 574.04h710.44" stroke="#000" stroke-linecap="square" stroke-width="4" fill="none"/>
    <path id="path2313" d="m17.224 666.56h710.14" stroke="#000" stroke-linecap="square" stroke-width="4" fill="none"/>
    <path id="path2315" d="m17.737 759.08h709.62" stroke="#000" stroke-linecap="square" stroke-width="4" fill="none"/>
    <path id="path2894" d="m728.54 18.852l1.68 831.63" stroke="#000" stroke-linecap="square" stroke-width="4" fill="none"/>
    <path id="path2896" d="m15.743 18.852l1.672 831.53" stroke="#000" stroke-linecap="square" stroke-width="4" fill="none"/>
    <path id="path2924" d="m17.737 850.49h709.62" stroke="#000" stroke-linecap="square" stroke-width="4" fill="none"/>
    <path id="path2952" d="m461.24 18.852l1.68 831.63" stroke="#000" stroke-linecap="square" stroke-width="4" fill="none"/>
    <path id="path2954" d="m193.94 18.852l1.68 831.53" stroke="#000" stroke-linecap="square" stroke-width="4" fill="none"/>
    <path id="path2956" d="m372.14 18.852l1.68 831.63" stroke="#000" stroke-linecap="square" stroke-width="4" fill="none"/>
    <path id="path2958" d="m104.84 18.852l1.68 831.53" stroke="#000" stroke-linecap="square" stroke-width="4" fill="none"/>
    <path id="path2960" d="m550.34 18.852l1.68 831.63" stroke="#000" stroke-linecap="square" stroke-width="4" fill="none"/>
    <path id="path2962" d="m283.04 18.852l1.68 831.53" stroke="#000" stroke-linecap="square" stroke-width="4" fill="none"/>
    <path id="path2964" d="m639.44 18.852l1.68 831.63" stroke="#000" stroke-linecap="square" stroke-width="4" fill="none"/>
    <path id="path2297" d="m18.79 390.24v90.46h708.62v-90.98l-708.62 0.52z" fill="#fff" fill-rule="evenodd"/>
    <path id="text3030" d="m142.12 411.18c0.58 0.18 0.93 1.11 1.05 2.8-0.12 1.57-0.84 2.85-2.18 3.83-1.63 0.64-3.23 1.2-4.8 1.66 1.28 0.12 2.65 0.41 4.1 0.87 0.99 0.59 1.48 1.37 1.48 2.36-0.52 4.01-1.33 6.02-2.44 6.02-0.23-0.12-0.61-0.58-1.13-1.4-0.64-1.1-1.52-2.24-2.62-3.4 0.06 6.51 0.35 10.99 0.87 13.44 0 0.64-0.08 1.13-0.26 1.48 6.46-1.69 12.07-2.71 16.84-3.05l-0.09-0.09c0-0.58 0.17-1.05 0.52-1.4 0.12-0.64 0.18-1.34 0.18-2.09l0.09-7.68-7.33 6.2c-1.75 1.39-2.94 2.09-3.58 2.09-0.52 0-1.34-0.29-2.44-0.87-0.7-0.47-1.05-0.99-1.05-1.57 0-0.35 0.35-0.73 1.05-1.14 2.27-1.34 4.65-3.34 7.15-6.02 2.1-2.21 3.75-4.36 4.97-6.45-2.15 0.46-4.44 1.04-6.89 1.74-0.7 0-1.25-1.1-1.66-3.31-0.29-1.57-0.43-2.53-0.43-2.88 0-0.76 0.58-1.14 1.74-1.14 2.33-0.05 5.21-0.37 8.64-0.96l0.09-11.25c0-0.64-0.12-1.34-0.35-2.09 0-0.29 0.17-0.59 0.52-0.88 0.47-0.34 1.34-0.52 2.62-0.52 0.81 0 1.86 0.2 3.14 0.61 0.93 0.47 1.4 0.87 1.4 1.22 0 0.24-0.12 0.64-0.35 1.22-0.41 1.05-0.7 2.74-0.88 5.06-0.11 1.92-0.23 3.76-0.34 5.5 1.97-0.47 4.07-0.99 6.28-1.57 1.51-0.47 2.5-0.76 2.96-0.87 0.58 0.23 0.9 1.19 0.96 2.88-0.06 1.45-0.72 2.73-2 3.83-3.03 0.94-5.82 1.63-8.38 2.1-0.06 1.16-0.12 2.24-0.17 3.23 3.6 0.52 7.85 1.86 12.73 4.01 1.11 0.81 1.66 1.86 1.66 3.14-0.41 4.01-1.19 6.02-2.35 6.02-0.59-0.12-1.66-0.9-3.23-2.36-1.98-1.92-4.95-3.98-8.9-6.19-0.12 2.56-0.18 4.57-0.18 6.02 0 1.16 0.03 2.18 0.09 3.05 0.18 1.34 0.26 2.45 0.26 3.32v0.09c6.11 0.34 10.27 1.94 12.48 4.79 1.69 3.38 2.53 5.7 2.53 6.98 0 0.87-0.55 1.31-1.66 1.31-0.41 0-1.13-0.03-2.18-0.09-1.16-0.05-2.5-0.11-4.01-0.17-1.17 0-2.85-0.09-5.06-0.26 0.06 0.06 0.08 0.11 0.08 0.17-0.05 1.46-0.66 2.62-1.83 3.49-2.27 0.99-4.33 1.63-6.19 1.92-1.34 0.23-2.74 0.61-4.19 1.13-0.23 2.97-0.35 4.95-0.35 5.94 0.7 0.35 1.37 0.7 2.01 1.04 2.32 1.17 5.09 2.3 8.29 3.41 3.43 0.81 9.42 2.06 17.97 3.75 3.95 2.15 5.93 3.55 5.93 4.19-0.17 1.1-3.34 1.65-9.51 1.65-2.38 0-6.92-0.17-13.61-0.52-1.1 0-1.98-0.61-2.62-1.83-1.04-1.69-2.5-2.79-4.36-3.32-2.61-0.75-4.91-1.83-6.89-3.23-3.55-2.15-8.43-4.04-14.66-5.67-0.69-0.23-1.3-0.43-1.83-0.61-0.46 0.64-0.96 1.25-1.48 1.84-1.28 1.74-2.44 4.59-3.49 8.54-2.97 1.87-5.82 2.8-8.55 2.8-3.02-0.29-4.54-0.91-4.54-1.84 0-0.4 0.67-0.96 2.01-1.65 3.96-2.33 7.36-5.56 10.21-9.69 2.61-3.72 4.56-7.38 5.84-10.99 1.34-1.8 2.27-2.7 2.79-2.7 3.03 1.1 4.54 2.15 4.54 3.14-0.81 1.51-1.74 3.05-2.79 4.62 0.7 0.41 1.51 0.93 2.44 1.57 2.39 1.05 4.57 1.98 6.54 2.79 0.18-3.84 0.32-9.36 0.44-16.57-0.99 0.17-2.01 0.38-3.05 0.61-7.91 1.74-12.86 3.31-14.83 4.71-0.93 1.22-1.46 1.83-1.57 1.83-0.76 0-1.49-0.61-2.18-1.83-0.47-0.87-0.7-1.66-0.7-2.36 0-1.16 1.07-2 3.23-2.53 3.31-1.1 6.48-2.06 9.5-2.88-0.52-0.17-1.19-0.46-2-0.87-1.57-0.58-2.36-1.36-2.36-2.35 0-0.18 0.32-0.85 0.96-2.01 0-0.87 0.03-3.2 0.09-6.98l-8.81 8.46c-1.75 1.75-3 2.62-3.75 2.62-0.47 0-1.17-0.29-2.1-0.87-0.7-0.41-1.04-0.82-1.04-1.22 0-0.47 0.4-0.93 1.22-1.4 2.32-1.57 4.77-3.92 7.33-7.07 1.74-2.21 3.22-4.36 4.44-6.45-2.15 0.41-4.5 1.07-7.06 2.01-0.7 0-1.31-1.23-1.83-3.67-0.41-1.8-0.61-2.91-0.61-3.31 0-0.99 0.61-1.49 1.83-1.49 2.73-0.05 6.22-0.43 10.47-1.13v-8.2l-0.79-6.02c0.18-0.82 0.67-1.37 1.48-1.66 0.82 0.12 2.3 0.67 4.45 1.66 1.92 1.1 2.88 1.95 2.88 2.53 0 0.17-0.26 0.44-0.78 0.78-0.53 0.3-1.05 1.02-1.57 2.19-0.29 1.57-0.56 4.18-0.79 7.85 1.11-0.24 2.3-0.47 3.58-0.7 1.39-0.47 2.3-0.73 2.7-0.79m8.03 36.56c2.38-0.24 5.32-0.64 8.81-1.22 0.87-0.24 1.42-0.35 1.66-0.35 0.29 0.05 0.52 0.29 0.7 0.69 3.02-1.28 4.53-2.9 4.53-4.88 0-1.16-3.02-1.75-9.07-1.75-1.75 0-3.55 0.09-5.41 0.27-0.41 0.87-0.7 1.97-0.87 3.31-0.12 1.4-0.23 2.71-0.35 3.93"/>
    <path id="text3034" d="m246.88 404.2c0.47 0 1.05 0.85 1.75 2.53 0.46 2.04 1.02 3.49 1.66 4.37 1.51 2.56 2.26 4.59 2.26 6.1 0 0.76-0.26 1.31-0.78 1.66-0.82 0.52-1.72 0.79-2.71 0.79-1.62 0-3.31-0.67-5.06-2.01-1.28-0.93-1.91-1.8-1.91-2.62 0-3.43 0.72-6.31 2.18-8.63 1.28-1.46 2.15-2.19 2.61-2.19m-6.63 20.68c0.82 0 1.54 0.44 2.18 1.31 0.76 0.75 1.75 1.42 2.97 2.01 0.76 0.46 1.13 1.19 1.13 2.18 0 0.64-0.32 1.22-0.96 1.74-1.97 1.8-3.66 4.16-5.06 7.07-1.27 3.14-1.91 5.93-1.91 8.37 0 2.15 0.4 4.04 1.22 5.67 1.28 1.52 2.96 2.27 5.06 2.27 0.69 0 1.74-1.25 3.14-3.75 2.5-5.18 4.24-9.97 5.23-14.39 0.41 0 0.61 0.49 0.61 1.48 0 4.01-0.46 7.91-1.39 11.69-0.76 3.55-1.75 6.37-2.97 8.46-0.99 1.57-1.83 3.29-2.53 5.15-0.46 1.92-1.05 2.88-1.74 2.88-1.63 0-3.58-1.43-5.85-4.28-2.67-3.49-4.01-8.55-4.01-15.18 0-4.65 1.16-11.28 3.49-19.89 0.23-1.86 0.7-2.79 1.39-2.79m54.79-7.07c-0.76 0-1.77 0.03-3.05 0.09 0.05 2.04 0.11 5.41 0.17 10.12v18.32l0.09 17.54c0.17 1.16 0.55 2.82 1.13 4.97 0 1.34-0.49 2.01-1.48 2.01-0.06 0-0.52-0.12-1.4-0.35-0.81-0.64-2.79-1.34-5.93-2.1-3.37-0.81-7.12-2.5-11.25-5.06-2.74-1.57-4.66-3.11-5.76-4.62 0.06-0.18 0.29-0.29 0.7-0.35 6.05 1.86 11.25 2.79 15.61 2.79 1.22-0.11 1.83-3.28 1.83-9.51 0-6.05-0.26-16.6-0.78-31.67 0-0.69-0.09-1.25-0.26-1.65-2.39 0.17-5.09 0.38-8.12 0.61-7.27 0.81-13.55 2.06-18.84 3.75-0.52 0-1.25-0.64-2.18-1.92-1.11-1.86-1.66-2.94-1.66-3.23 0-0.7 0.61-1.16 1.83-1.39 3.55-0.18 8.18-0.93 13.88-2.27 4.36-0.7 9.21-1.51 14.56-2.44 4.08-0.24 7.48-0.79 10.21-1.66 1.8-0.64 3.23-0.96 4.28-0.96 1.22 0 2.58 2.67 4.1 8.02-0.12 0.88-0.79 1.31-2.01 1.31l-5.67-0.35m-38.65 11.52l2.01 0.35c5.87-1.63 10.23-2.56 13.08-2.79 2.16-0.47 3.29-0.7 3.41-0.7 1.04 0 2.29 0.61 3.75 1.83 1.16 1.11 1.74 2.15 1.74 3.14 0 0.29-0.26 0.73-0.78 1.31-0.64 0.87-1.8 4.22-3.49 10.03-0.41 1.51-0.82 2.36-1.22 2.53-0.76 0-1.57-0.35-2.45-1.04-5.17 1.04-8.11 1.83-8.81 2.35-0.58 0.35-1.04 0.52-1.39 0.52-1.28-0.11-2.85-2.58-4.71-7.41-1.46-3.96-2.18-6.6-2.18-7.94 0-1.45 0.34-2.18 1.04-2.18m7.68 11.17c0.76 0 2.85-0.32 6.28-0.96 0.35-0.12 0.64-0.59 0.87-1.4 0.35-1.63 0.53-3.29 0.53-4.97 0-1.57-0.35-2.36-1.05-2.36-1.16 0-2.73 0.32-4.71 0.96-2.5 0.87-3.75 1.72-3.75 2.53 0.11 4.13 0.72 6.2 1.83 6.2"/>
    <path id="text3038" d="m-642.22-463.53c0.47 0 0.99 0.88 1.57 2.62 0.47 2.09 1.05 3.61 1.75 4.54 1.45 2.61 2.18 4.68 2.18 6.19 0 0.76-0.26 1.34-0.79 1.75-0.75 0.4-1.65 0.61-2.7 0.61-1.51 0-3.17-0.64-4.97-1.92-1.28-0.93-1.92-1.81-1.92-2.62 0-3.55 0.69-6.51 2.09-8.9 1.34-1.51 2.27-2.27 2.79-2.27m-7.33 21.03c0.7 0 1.4 0.4 2.1 1.22 0.81 0.64 1.8 1.25 2.96 1.83 0.82 0.47 1.23 1.16 1.23 2.09 0 0.53-0.35 1.05-1.05 1.57-1.98 1.52-3.67 3.55-5.06 6.11-1.34 2.79-2.01 5.24-2.01 7.33 0 2.04 0.47 3.78 1.4 5.23 1.16 1.4 2.79 2.1 4.88 2.1 0.7 0 1.75-1.63 3.14-4.89 2.56-6.8 4.31-13.05 5.24-18.75 0.52 0 0.78 0.43 0.78 1.3 0 4.95-0.52 9.72-1.57 14.31-0.69 4.48-1.68 7.97-2.96 10.47-0.93 1.92-1.72 3.98-2.36 6.19-0.52 2.45-1.16 3.67-1.92 3.67-1.57 0-3.55-1.46-5.93-4.36-2.79-3.55-4.19-8.64-4.19-15.27 0-4.07 1.43-10 4.28-17.8 0.17-1.57 0.52-2.35 1.04-2.35m50.95-16.05c-1.34 0-3.49 0.08-6.45 0.26-0.76 1.39-1.66 2.82-2.71 4.27h0.35c0.7 0 1.05 1.05 1.05 3.14 0 0.53-0.56 0.99-1.66 1.4-0.99 0.17-1.98 0.32-2.97 0.43 0.06 0.06 0.09 0.12 0.09 0.18-0.23 0.87-0.44 1.83-0.61 2.88 1.63-0.18 3.05-0.29 4.27-0.35 3.73-0.47 5.68-0.7 5.85-0.7 1.22 0 2.7 0.58 4.45 1.75 1.45 1.16 2.18 2.21 2.18 3.14 0 0.23-0.38 0.55-1.13 0.96-0.88 0.64-2.42 3.14-4.63 7.5-0.52 1.16-1.04 1.83-1.57 2.01-0.81 0-1.74-0.24-2.79-0.7-3.08 0.29-5.76 0.58-8.03 0.87-0.11 1.28-0.23 2.53-0.34 3.75 3.37-0.41 7.32-0.93 11.86-1.57 0.7 0 1.05 1.16 1.05 3.49 0 0.58-0.58 1.08-1.75 1.48-4.59 0.82-8.58 1.4-11.95 1.75-0.23 1.51-0.47 2.85-0.7 4.01 2.33-0.29 4.77-0.61 7.33-0.96 4.01-0.17 7.42-0.58 10.21-1.22 1.8-0.58 3.2-0.87 4.18-0.87 0.88 0 1.92 2.21 3.15 6.63-0.12 0.46-0.73 0.7-1.84 0.7l-4.53-0.35c-2.45 0-7.33 0.2-14.66 0.61 1.28 1.1 3.4 3.17 6.37 6.19 1.8 1.86 4.77 3.61 8.9 5.24 4.24 1.57 6.72 2.82 7.41 3.75 0 0.93-2.06 1.39-6.19 1.39-2.85 0-5.15-0.06-6.89-0.17-1.52-0.18-2.39-0.61-2.62-1.31-0.29-1.16-1.25-2.33-2.88-3.49-1.8-1.4-3.4-2.85-4.8-4.36-1.33-1.51-2.7-2.62-4.1-3.32-0.7-0.35-1.13-0.78-1.31-1.31-0.75 1.63-1.6 2.97-2.53 4.02-1.28 1.68-2.09 3.46-2.44 5.32-2.73 2.03-5.47 3.61-8.2 4.71-2.09 0.41-3.9 0.61-5.41 0.61-1.86 0-2.79-0.23-2.79-0.7 0-0.11 0.67-0.58 2.01-1.39 4.77-2.56 8.55-5.5 11.34-8.81 1.28-1.46 2.32-3.26 3.14-5.41-4.42 0.46-8.43 1.1-12.04 1.92-0.41 0-0.93-0.5-1.57-1.49-0.81-1.51-1.22-2.38-1.22-2.61 0-0.35 0.38-0.59 1.13-0.7 3.55-0.12 8.12-0.67 13.7-1.66 0.52-0.12 1.02-0.2 1.48-0.26 0.23-1.22 0.44-2.53 0.61-3.93 0-0.11 0.03-0.2 0.09-0.26-2.27 0.29-4.77 0.7-7.5 1.22-0.58 0-1.14-0.64-1.66-1.92-0.35-0.93-0.52-1.83-0.52-2.7 0-0.47 0.37-0.7 1.13-0.7 1.4-0.06 4.48-0.35 9.25-0.87 0.11-1.16 0.2-2.39 0.26-3.67-2.33 0.3-3.81 0.59-4.45 0.88-1.22 0.35-2.12 0.52-2.7 0.52-1.23-0.06-2.71-2.03-4.45-5.93-1.46-3.26-2.18-5.44-2.18-6.54 0-1.17 0.37-1.75 1.13-1.75l2.01 0.35c3.95-0.81 7.5-1.45 10.64-1.92l-0.09-3.05c-0.35 0.06-0.7 0.11-1.04 0.17v0.18c0 0.4-0.73 0.66-2.19 0.78-0.93 0-2.09-2.12-3.49-6.37-0.23-0.7-0.43-1.39-0.61-2.09-2.03 0.58-3.89 1.19-5.58 1.83-0.58 0-1.28-0.67-2.09-2.01-0.93-1.8-1.4-2.9-1.4-3.31 0-0.52 0.44-0.87 1.31-1.05 1.92-0.06 4.19-0.26 6.8-0.61-0.29-2.27-0.43-4.51-0.43-6.72 0-0.87 0.55-1.3 1.66-1.3 0.52 0 1.68 0.26 3.49 0.78 1.33 0.52 2.06 1.05 2.18 1.57-0.29 1.8-0.5 3.32-0.61 4.54 3.6-0.53 7.56-1.08 11.86-1.66 0.47-1.86 0.99-3.84 1.57-5.93 0.58-1.63 1.31-2.44 2.18-2.44 0.52 0 1.63 0.46 3.32 1.39 1.45 1.05 2.18 1.75 2.18 2.09 0 0.18-0.24 0.5-0.7 0.96-0.64 0.41-1.31 1.49-2.01 3.23 1.17-0.17 2.21-0.38 3.14-0.61 1.63-0.52 2.88-0.78 3.75-0.78 0.94 0 1.98 2.18 3.15 6.54-0.06 0.52-0.62 0.78-1.66 0.78l-4.54-0.34m-21.9 6.1c1.81-0.17 4.89-0.55 9.25-1.13 0.18-1.22 0.47-2.65 0.87-4.28-1.45 0.12-3.02 0.27-4.71 0.44-2.03 0.23-3.95 0.49-5.75 0.78 0.11 1.28 0.23 2.68 0.34 4.19m-3.92 18.32c1.05 0 2.99-0.14 5.84-0.43v-4.98l-0.08-2c-4.83 0.87-7.24 1.71-7.24 2.53 0.11 3.25 0.61 4.88 1.48 4.88m12.39-8.37c-0.18 1.57-0.32 3.31-0.44 5.23-0.06 0.7-0.12 1.37-0.17 2.01 1.57-0.18 3.31-0.38 5.23-0.61 0.64-0.06 1.16-0.41 1.57-1.05 0.64-1.16 0.96-2.35 0.96-3.58 0-1.57-0.49-2.35-1.48-2.35-1.51 0-3.41 0.11-5.67 0.35" transform="scale(-1)"/>
    <path id="text3042" d="m-525.16-463.88l2.36 0.35c12.74-2.32 22.24-3.66 28.53-4.01 4.76-0.52 7.27-0.79 7.5-0.79 1.74 0 3.78 0.62 6.11 1.84 1.91 1.22 2.87 2.32 2.87 3.31 0 0.58-0.52 1.34-1.57 2.27-1.39 1.57-3.75 7.1-7.06 16.58-0.82 2.5-1.66 3.89-2.53 4.18-0.99 0-2.13-0.35-3.4-1.04-0.94 0.11-1.81 0.23-2.62 0.35 0.99 0.81 2.21 1.57 3.66 2.26 2.15 1.46 4.28 3.26 6.37 5.41 1.57 1.92 3.61 3.7 6.11 5.32 4.53 3.2 8.9 5.76 13.08 7.68 1.92 0.81 3.41 1.98 4.45 3.49 0 0.93-2 1.4-6.02 1.4-4.42 0-8.72-0.29-12.91-0.88-1.86-0.17-2.96-0.98-3.31-2.44-0.41-4.3-2.1-8-5.06-11.08-4.31-4.48-7.42-6.8-9.34-6.98-2.56-0.29-3.84-0.96-3.84-2 0-0.35 0.03-0.73 0.09-1.14-1.4 0.18-2.65 0.35-3.75 0.53 0.12 0.11 0.17 0.2 0.17 0.26 0 0.4-0.43 0.96-1.3 1.65-3.2 2.8-6 5.36-8.38 7.68 1.16 0.06 2.88 0.35 5.15 0.87 1.57 0.41 2.35 0.96 2.35 1.66 0 0.41-0.17 0.87-0.52 1.4-0.58 1.28-1.66 5.84-3.23 13.69l0.44 2.45c-1.22 2.73-3.14 4.97-5.76 6.71-1.63 1.46-4.51 2.65-8.64 3.58-0.75 0-1.13-0.23-1.13-0.7 1.74-1.39 3.72-3.28 5.93-5.67 2.21-2.27 3.64-4.77 4.28-7.5 0.4-2.5 0.61-5.87 0.61-10.12 0-0.87-0.24-1.98-0.7-3.31-0.18-0.53-0.32-0.96-0.44-1.31-2.61 2.67-4.77 5.06-6.45 7.15-1.05 0.93-1.63 1.92-1.75 2.97-0.23 0.69-1.34 1.51-3.31 2.44-2.91 1.45-6.37 2.18-10.38 2.18-1.63 0-2.45-0.38-2.45-1.13 5.94-2.97 11.2-6.9 15.79-11.78 3.73-3.61 6.87-7.18 9.43-10.73-0.41 0.11-0.76 0.17-1.05 0.17-1.86-0.11-4.1-4.13-6.72-12.04-2.09-6.39-3.14-10.73-3.14-13 0-1.45 0.49-2.18 1.48-2.18m10.47 20.33c1.17 0 3.32-0.26 6.46-0.78-0.12-1.46-0.21-3.29-0.26-5.5-1.28 0.23-2.68 0.55-4.19 0.96-0.58 0-1.11-1.11-1.57-3.32-0.29-1.57-0.44-2.55-0.44-2.96 0-0.7 0.58-1.05 1.75-1.05 1.28 0 2.7-0.09 4.27-0.26-0.06-1.69-0.09-3.43-0.09-5.24-6.04 1.05-9.07 2.1-9.07 3.15 0.23 10 1.28 15 3.14 15m13.18-19.37c-0.12 0.88-0.21 1.95-0.27 3.23v2.44c1.17-0.17 2.42-0.34 3.75-0.52 1.11-0.23 1.84-0.38 2.19-0.44 0.58 0.18 0.93 0.96 1.04 2.36-0.06 1.45-0.67 2.62-1.83 3.49-1.86 0.58-3.63 1.05-5.32 1.4-0.12 2.44-0.18 4.33-0.18 5.67 1.92-0.29 4.02-0.64 6.29-1.05 1.28-0.23 2.23-1.31 2.87-3.23 1.34-3.55 2.01-7.24 2.01-11.08 0-1.92-0.73-2.88-2.18-2.88-2.27 0-5.06 0.21-8.37 0.61m5.23 31.24c0.99 0 2.15 0.23 3.49 0.69 0.99 0.53 1.48 0.96 1.48 1.31 0 0.23-0.11 0.64-0.35 1.22-0.4 0.93-0.72 2.47-0.96 4.63-0.58 11.57-0.87 19.31-0.87 23.2 0 1.11 0.03 2.07 0.09 2.88 0.17 1.16 0.26 2.18 0.26 3.05-0.06 0.7-0.73 1.05-2.01 1.05-2.32 0-3.6-0.35-3.83-1.05-0.01-0.58 0.08-1.07 0.26-1.48 0.05-0.52 0.08-1.19 0.08-2.01l-0.69-29.66c0-0.64-0.27-1.36-0.79-2.18 0-0.35 0.26-0.67 0.79-0.96 0.58-0.46 1.6-0.69 3.05-0.69" transform="scale(-1)"/>
    <g id="g3611" stroke="#000" stroke-width="4" fill="none">
      <g id="g3274">
        <path id="path3260" d="m187.84 543.94v23.24h-23.58"/>
        <path id="path3264" d="m224.78 567.16h-23.24v-23.03"/>
        <path id="path3266" d="m201.2 603.56v-23.24h23.58"/>
        <path id="path3268" d="m164.26 580.33h23.24v23.04"/>
      </g>
      <g id="g3290" transform="translate(-.59649)">
        <path id="path3270" d="m47.783 567.16h-23.238v-23.03"/>
        <path id="path3272" d="m24.203 603.56v-23.24h23.58"/>
      </g>
      <g id="g3280" transform="translate(-88.5 92.616)">
        <path id="path3282" d="m187.84 543.94v23.24h-23.58"/>
        <path id="path3284" d="m224.78 567.16h-23.24v-23.03"/>
        <path id="path3286" d="m201.2 603.56v-23.24h23.58"/>
        <path id="path3288" d="m164.26 580.33h23.24v23.04"/>
      </g>
      <g id="g3294" transform="translate(446.61 92.616)">
        <path id="path3296" d="m187.84 543.94v23.24h-23.58"/>
        <path id="path3298" d="m224.78 567.16h-23.24v-23.03"/>
        <path id="path3300" d="m201.2 603.56v-23.24h23.58"/>
        <path id="path3302" d="m164.26 580.33h23.24v23.04"/>
      </g>
      <g id="g3304" transform="translate(179.34 .62834)">
        <path id="path3306" d="m187.84 543.94v23.24h-23.58"/>
        <path id="path3308" d="m224.78 567.16h-23.24v-23.03"/>
        <path id="path3310" d="m201.2 603.56v-23.24h23.58"/>
        <path id="path3312" d="m164.26 580.33h23.24v23.04"/>
      </g>
      <g id="g3314" transform="translate(357.25 .62834)">
        <path id="path3316" d="m187.84 543.94v23.24h-23.58"/>
        <path id="path3318" d="m224.78 567.16h-23.24v-23.03"/>
        <path id="path3320" d="m201.2 603.56v-23.24h23.58"/>
        <path id="path3322" d="m164.26 580.33h23.24v23.04"/>
      </g>
      <g id="g3324" transform="matrix(-1 0 0 -1 747.63 1147.7)">
        <path id="path3326" d="m47.783 567.16h-23.238v-23.03"/>
        <path id="path3328" d="m24.203 603.56v-23.24h23.58"/>
      </g>
    </g>
    <g id="g3644" stroke="#000" stroke-width="4" transform="matrix(-1 0 0 -1 747.03 870.63)" fill="none">
      <g id="g3646">
        <path id="path3648" d="m187.84 543.94v23.24h-23.58"/>
        <path id="path3650" d="m224.78 567.16h-23.24v-23.03"/>
        <path id="path3652" d="m201.2 603.56v-23.24h23.58"/>
        <path id="path3654" d="m164.26 580.33h23.24v23.04"/>
      </g>
      <g id="g3656" transform="translate(-.59649)">
        <path id="path3658" d="m47.783 567.16h-23.238v-23.03"/>
        <path id="path3660" d="m24.203 603.56v-23.24h23.58"/>
      </g>
      <g id="g3662" transform="translate(-88.5 92.616)">
        <path id="path3664" d="m187.84 543.94v23.24h-23.58"/>
        <path id="path3666" d="m224.78 567.16h-23.24v-23.03"/>
        <path id="path3668" d="m201.2 603.56v-23.24h23.58"/>
        <path id="path3670" d="m164.26 580.33h23.24v23.04"/>
      </g>
      <g id="g3672" transform="translate(446.61 92.616)">
        <path id="path3674" d="m187.84 543.94v23.24h-23.58"/>
        <path id="path3676" d="m224.78 567.16h-23.24v-23.03"/>
        <path id="path3678" d="m201.2 603.56v-23.24h23.58"/>
        <path id="path3680" d="m164.26 580.33h23.24v23.04"/>
      </g>
      <g id="g3682" transform="translate(179.34 .62834)">
        <path id="path3684" d="m187.84 543.94v23.24h-23.58"/>
        <path id="path3686" d="m224.78 567.16h-23.24v-23.03"/>
        <path id="path3688" d="m201.2 603.56v-23.24h23.58"/>
        <path id="path3690" d="m164.26 580.33h23.24v23.04"/>
      </g>
      <g id="g3692" transform="translate(357.25 .62834)">
        <path id="path3694" d="m187.84 543.94v23.24h-23.58"/>
        <path id="path3696" d="m224.78 567.16h-23.24v-23.03"/>
        <path id="path3698" d="m201.2 603.56v-23.24h23.58"/>
        <path id="path3700" d="m164.26 580.33h23.24v23.04"/>
      </g>
      <g id="g3702" transform="matrix(-1 0 0 -1 747.63 1147.7)">
        <path id="path3704" d="m47.783 567.16h-23.238v-23.03"/>
        <path id="path3706" d="m24.203 603.56v-23.24h23.58"/>
      </g>
    </g>
    <path id="path3708" d="m312.33 39.905l178.54 184.86" transform="translate(-29.684 -21.307)" stroke="#000" stroke-width="4" fill="none"/>
    <path id="path3710" d="m313.13 224.77l177.74-184.47" transform="translate(-29.684 -21.307)" stroke="#000" stroke-width="4" fill="none"/>
    <path id="path3712" d="m284.21 668.01l179.79 182.78" stroke="#000" stroke-width="4" fill="none"/>
    <path id="path3714" d="m285.84 849.53l176.06-181.12" stroke="#000" stroke-width="4" fill="none"/>
    <path id="text3716" d="m-9.9739 400.3c-0.5781 0.01-1.5141 0.06-2.8081 0.17-0.248 0.39-0.523 0.81-0.826 1.28-0.44 0.69-0.73 1.03-0.867 1.03-0.22 0-0.372-0.22-0.454-0.66 0.137-0.55 0.261-1.06 0.371-1.53-0.578 0.06-1.211 0.13-1.899 0.21-0.413 0.06-0.826 0.11-1.239 0.17 0.11 0.49 0.261 1.04 0.454 1.65 0 0.14-0.33 0.23-0.991 0.29-0.358 0-0.785-0.53-1.28-1.57-1.294 0.27-2.478 0.64-3.552 1.11-0.22 0-0.509-0.27-0.867-0.82-0.413-0.75-0.619-1.19-0.619-1.33 0-0.27 0.234-0.45 0.702-0.53 0.991-0.03 2.216-0.17 3.675-0.41-0.358-1.35-0.537-2.69-0.537-4.01 0-0.33 0.22-0.5 0.661-0.5 0.193 0 0.661 0.11 1.404 0.33 0.55 0.22 0.84 0.43 0.867 0.62-0.22 1.08-0.33 1.88-0.33 2.4 0 0.25 0.027 0.52 0.082 0.82 1.267-0.16 2.629-0.35 4.089-0.57 0.523-1.71 1.06-3.29 1.61-4.75 0.11-0.58 0.344-0.87 0.702-0.87 1.625 0.66 2.4367 1.21 2.4367 1.65 0 0.08-0.0964 0.19-0.2891 0.33-0.3028 0.31-0.8676 1.19-1.6936 2.65-0.055 0.19-0.165 0.42-0.33 0.7 0.441-0.06 0.84-0.14 1.198-0.25 0.6329-0.19 1.1147-0.29 1.4451-0.29 0.3579 0 0.7571 0.77 1.1976 2.31-0.0551 0.36-0.2754 0.54-0.6608 0.54l-1.6518-0.17m-14.041 4.42h0.62c1.707-0.52 2.973-0.82 3.799-0.9 0.661-0.14 1.005-0.21 1.032-0.21 0.303 0 0.661 0.19 1.074 0.58 0.386 0.38 0.578 0.73 0.578 1.03 0 0.11-0.082 0.25-0.247 0.41-0.221 0.22-0.579 1.12-1.074 2.69-0.11 0.44-0.22 0.68-0.331 0.74-0.192 0-0.426-0.06-0.702-0.17-0.22 0.06-0.413 0.1-0.578 0.13 0.165 0.08 0.372 0.19 0.62 0.33 0.44 0.3 0.66 0.48 0.66 0.54 0 0.11-0.123 0.26-0.371 0.45-0.578 0.58-1.101 1.1-1.569 1.57 0.22 0.03 0.371 0.08 0.454 0.16 0.082-0.24 0.289-0.42 0.619-0.53 1.157-0.17 2.216-0.32 3.18-0.46-0.11-0.05-0.22-0.12-0.33-0.2-0.331-0.25-0.496-0.54-0.496-0.87 0-0.28 0.207-0.73 0.62-1.36 0.247-0.42 0.468-0.66 0.66-0.75-0.11-0.3-0.247-0.68-0.413-1.15-0.358-1.24-0.537-2.07-0.536-2.48-0.001-0.44 0.11-0.66 0.33-0.66h0.619c1.762-0.58 3.084-0.9 3.965-0.95 0.633-0.14 0.963-0.21 0.991-0.21 0.385 0 0.798 0.2 1.2387 0.58 0.3855 0.41 0.5782 0.77 0.5782 1.07 0 0.09-0.0826 0.22-0.2478 0.42-0.2478 0.27-0.6745 1.35-1.2801 3.22-0.138 0.47-0.289 0.73-0.454 0.78-0.166 0-0.372-0.11-0.62-0.33-1.707 0.31-2.67 0.54-2.89 0.7-0.193 0.11-0.331 0.17-0.413 0.17-0.083 0-0.152-0.03-0.207-0.08 0.138 0.38 0.344 0.7 0.62 0.95 0.275 0.22 0.44 0.51 0.495 0.86 2.533-0.38 3.882-0.59 4.0471-0.62 0.3303 0.06 0.4955 0.4 0.4955 1.04 0 0.33-0.2202 0.53-0.6606 0.62-0.909 0.08-1.927 0.27-3.056 0.57-0.193 0.06-0.385 0.1-0.578 0.13-0.028 0.36-0.055 0.84-0.083 1.44v0.09c2.01-0.36 3.07-0.55 3.18-0.58 0.358 0.05 0.537 0.45 0.537 1.2 0 0.33-0.289 0.53-0.867 0.62-0.771 0.08-1.652 0.24-2.643 0.49-0.055 0.03-0.124 0.04-0.207 0.04-0.055 0.53-0.082 0.98-0.082 1.37 2.257-0.36 3.469-0.54 3.634-0.54 0.3301 0.05 0.4952 0.44 0.4953 1.15-0.0001 0.33-0.2893 0.56-0.8673 0.67-0.798 0.05-1.707 0.19-2.726 0.41-0.192 0.03-0.371 0.05-0.536 0.08-0.028 0.66-0.042 1.18-0.042 1.57 0.138-0.03 0.248-0.04 0.331-0.04 0.991-0.06 1.858-0.17 2.601-0.33 0.441-0.14 0.799-0.21 1.0741-0.21 0.2753 0 0.5919 0.66 0.9498 1.98-0.0276 0.22-0.179 0.33-0.4543 0.33h-1.5276c-0.661 0-2.175 0.09-4.543 0.25-1.817 0.17-3.359 0.47-4.625 0.91-0.028 1.6-0.041 2.7-0.041 3.3 0 0.33-0.455 0.5-1.363 0.5-0.688 0-1.074-0.11-1.156-0.33 0.275-2.26 0.495-6.7 0.66-13.34-0.523 0.58-0.95 1.1-1.28 1.57-0.275 0.25-0.44 0.54-0.495 0.87-0.056 0.19-0.358 0.41-0.909 0.66-0.743 0.41-1.652 0.62-2.726 0.62-0.468 0-0.702-0.1-0.702-0.29 1.515-0.88 2.864-2.02 4.047-3.43 1.322-1.43 2.341-2.82 3.056-4.17 0-0.03 0.014-0.04 0.042-0.04-0.276 0.08-0.441 0.15-0.496 0.21-0.165 0.11-0.275 0.16-0.33 0.16-0.468-0.03-1.033-0.72-1.693-2.06-0.523-1.11-0.785-1.85-0.785-2.23 0-0.47 0.11-0.71 0.33-0.71m3.841 16.69c0.798-0.06 1.748-0.21 2.849-0.46 0.303-0.02 0.606-0.07 0.909-0.12 0.027-0.44 0.041-0.95 0.041-1.53-0.881 0.11-1.776 0.28-2.684 0.5-0.303 0-0.482-0.39-0.537-1.16 0-0.3 0.234-0.52 0.702-0.66 0.909-0.14 1.762-0.28 2.56-0.41v-1.32c-0.881 0.11-1.789 0.3-2.725 0.57-0.303 0-0.482-0.4-0.537-1.19 0-0.31 0.234-0.51 0.702-0.62 0.936-0.17 1.803-0.33 2.602-0.5v-1.61c-1.019 0.11-2.065 0.3-3.139 0.58-0.248 0-0.426-0.17-0.537-0.5-0.027 0.5-0.055 1.12-0.082 1.86-0.028 2.59-0.069 4.78-0.124 6.57m-1.239-13.34c0.193 0 0.688-0.17 1.487-0.5 0.137-0.02 0.247-0.15 0.33-0.37 0.11-0.44 0.165-0.87 0.165-1.28 0-0.58-0.11-0.87-0.33-0.87-0.303 0-0.73 0.13-1.28 0.38-0.661 0.27-0.991 0.55-0.991 0.82 0.027 1.21 0.234 1.82 0.619 1.82m6.938-1.03c0.248 0 0.908-0.11 1.982-0.33 0.165-0.03 0.317-0.17 0.454-0.42 0.165-0.49 0.248-1.02 0.248-1.57 0-0.52-0.179-0.78-0.537-0.78-0.303 0-0.716 0.1-1.239 0.29-0.716 0.3-1.073 0.58-1.073 0.82 0.027 1.33 0.082 1.99 0.165 1.99m7.5983-6.07c0.3028 0 0.5781 0.02 0.8259 0.08 0.2478-0.11 0.5919-0.19 1.0324-0.25 2.6154-0.8 4.6527-1.2 6.1119-1.2 0.6056 0 1.4315 0.22 2.4777 0.66 0.7709 0.36 1.1563 0.69 1.1563 0.99 0 0.31-0.1101 0.76-0.3303 1.37-0.2478 0.99-0.6883 5.27-1.3215 12.84-0.0001 0.11-0.3992 0.17-1.1976 0.17-0.8535 0-1.2802-0.11-1.2802-0.33 0.02751-0.36 0.04128-0.72 0.04131-1.08-1.2389 0.11-2.5466 0.3-3.9231 0.58 0.3578 0.19 0.5506 0.41 0.5781 0.66-0.0551 0.41-1.0599 2.22-3.0146 5.41-0.4681 0.83-0.881 1.96-1.2389 3.39-0.3579 0.82-1.294 1.43-2.8081 1.81-1.1016 0.2-2.0646 0.29-2.8906 0.29-0.413 0-0.62-0.11-0.62-0.33 2.809-1.76 4.8733-3.87 6.1948-6.32 0.936-1.68 1.4867-3.11 1.6519-4.29-0.1102 0.05-0.2203 0.11-0.3304 0.16-0.3579 0.28-0.6608 0.42-0.9085 0.42-0.1928 0-0.4268-0.18-0.7021-0.54-0.1927-0.25-0.2891-0.56-0.289-0.95-0.0001-1.35 0.0137-3.18 0.0413-5.49 0.0825-1.9 0.1238-3.94 0.1239-6.11-0.0001-0.22-0.0276-0.5-0.0826-0.83-0.0551-0.27-0.0827-0.44-0.0826-0.49-0.0001-0.42 0.2615-0.62 0.7846-0.62m7.5985 11.06c0.13762-3.16 0.20645-6.09 0.20648-8.79-0.05509-1.21-0.45429-1.82-1.1976-1.82-1.2389 0-2.7806 0.51-4.6252 1.53-0.0551 0.55-0.1377 1.2-0.2478 1.94v0.04c0.9911-0.17 2.5741-0.44 4.7491-0.83 0.19269 0 0.28905 0.38 0.28908 1.12-0.00003 0.22-0.20652 0.4-0.61945 0.54-1.0737 0.44-1.9822 0.73-2.7255 0.86-0.4956 0.11-1.115 0.32-1.8583 0.62-0.0276 0.66-0.0551 1.27-0.0826 1.82 0.9635-0.19 2.6291-0.58 4.9968-1.16 0.19269 0 0.28905 0.44 0.28908 1.32-0.00003 0.17-0.20652 0.34-0.61945 0.5-1.0737 0.5-1.9822 0.83-2.7255 0.99-0.5507 0.11-1.2389 0.36-2.0648 0.74-0.0276 0.31-0.0413 0.54-0.0413 0.71 0 0.58 0.1101 0.86 0.3303 0.86 0.2753 0 0.8672-0.09 1.7758-0.28 2.1198-0.45 3.5101-0.68 4.1709-0.71m-1.6106 3.27c0.79836 0 1.2939 0.16 1.4867 0.49-0.00007 0.25-0.22032 0.99-0.66078 2.23-0.22027 1.13-0.3304 2.04-0.33037 2.73-0.00003 1.1 0.16516 1.9 0.49556 2.39 0.52305 0.52 1.2663 0.79 2.23 0.79 1.8445 0 3.1109-0.32 3.7992-0.95 0.468-0.53 0.702-1.41 0.702-2.65l-0.289-4c-0.0001-0.22 0.055-0.33 0.1651-0.33 0.3029 0 0.7433 0.75 1.3215 2.27 0.7433 2.17 1.1425 3.91 1.1976 5.2 0.0826 0.66 0.1239 1.17 0.1239 1.53 0.1101 0.25 0.1652 0.44 0.1652 0.58 0 0.33-0.2203 0.49-0.6607 0.49-0.9637 0.17-2.12 0.36-3.4689 0.58-0.881 0.17-1.7896 0.25-2.7256 0.25-1.4591 0-2.7256-0.55-3.7992-1.65-0.9361-1.02-1.4041-2.52-1.4041-4.5 0-1.57 0.1514-3.1 0.4543-4.59 0.1926-0.58 0.5918-0.86 1.1976-0.86m-12.884 29.6c0.275 0.06 0.44 0.45 0.495 1.16-0.055 0.72-0.399 1.32-1.032 1.82-1.101 0.52-2.161 0.95-3.18 1.28 0 0.44-0.014 0.87-0.041 1.28 1.211 0.19 2.629 0.71 4.253 1.57 0.413 0.27 0.62 0.66 0.62 1.15-0.193 1.85-0.565 2.77-1.115 2.77-0.22-0.05-0.578-0.34-1.074-0.87-0.606-0.77-1.514-1.59-2.725-2.47v0.95c0 7.68 0.165 12.84 0.495 15.48 0 0.66-0.289 0.99-0.867 0.99-0.083 0-0.523-0.19-1.322-0.58-0.743-0.27-1.115-0.68-1.115-1.23 0-0.17 0.124-0.79 0.372-1.86 0.028-1.21 0.055-5.08 0.083-11.61l-5.328 5.66c-1.156 1.24-1.954 1.86-2.395 1.86-0.192 0-0.509-0.11-0.95-0.33-0.247-0.17-0.371-0.35-0.371-0.54 0-0.3 0.22-0.6 0.661-0.91 1.431-1.1 2.932-2.74 4.501-4.91 1.376-1.87 2.478-3.73 3.304-5.58-1.349 0.33-2.864 0.9-4.543 1.7-0.385 0-0.716-0.68-0.991-2.03-0.22-0.96-0.331-1.55-0.331-1.77 0-0.47 0.345-0.7 1.033-0.7 1.404-0.06 3.207-0.31 5.41-0.75v-7.47l-0.289-2.81c0.055-0.5 0.316-0.84 0.784-1.03 0.413 0.05 1.129 0.36 2.148 0.91 0.881 0.52 1.321 0.95 1.321 1.28 0 0.16-0.11 0.38-0.33 0.66-0.248 0.3-0.482 0.93-0.702 1.9-0.138 1.26-0.262 3.27-0.372 6.03 0.688-0.2 1.404-0.39 2.147-0.58 0.716-0.25 1.198-0.39 1.446-0.42m17.675-1.98c0.3303 0 0.4955 0.61 0.4956 1.82-0.0001 0.22-0.3442 0.43-1.0324 0.62-0.8535 0.22-1.6795 0.43-2.4778 0.62-0.33042 5.42-0.52313 9.14-0.57816 11.15 1.9272-0.17 3.7442-0.32 5.4511-0.46 0.5231-0.13 1.115-0.2 1.7758-0.2 0.1651 0.49 0.3716 0.96 0.6194 1.4 0.3854 0.75 0.6057 1.42 0.6608 2.03-0.0827 0.41-0.2341 0.64-0.4543 0.7-0.1377 0-0.6332-0.15-1.4867-0.46-0.936-0.38-1.762-0.57-2.4777-0.57-2.7532 0-6.456 0.19-11.109 0.57-4.1022 0.33-7.1852 0.75-9.2502 1.24-0.358 0-0.729-0.87-1.115-2.6l0.661-0.33h1.156c1.927-0.17 3.786-0.33 5.5752-0.5-0.0276-4.21-0.1102-7.62-0.2478-10.24-0.4954 0.11-1.0054 0.22-1.5284 0.33-0.302 0-0.605-0.31-0.908-0.95-0.193-0.46-0.289-0.93-0.289-1.4 0-0.33 0.234-0.5 0.702-0.5 0.385-0.02 1.005-0.08 1.858-0.16-0.082-1.41-0.22-2.45-0.413-3.14-0.165-0.77-0.275-1.43-0.33-1.98 0-0.3 0.661-0.46 1.9821-0.46 0.9911 0 1.4866 0.27 1.4866 0.79 0 1.4 0.0138 2.88 0.0413 4.42 1.4591-0.22 3.2211-0.5 5.286-0.83 0.055-2.2 0.0963-4.61 0.1238-7.23 0-0.41 0.3992-0.62 1.1976-0.62 1.7344 0 2.6017 0.32 2.6017 0.95-0.3304 0.89-0.5369 2.11-0.6194 3.68-0.0827 0.94-0.1515 1.84-0.2065 2.73 0.9085-0.14 1.8583-0.28 2.8494-0.42m-11.109 14.79c1.6519-0.11 3.2211-0.24 4.7078-0.37 0.1376-2.43 0.2753-6.03 0.413-10.82-0.9361 0.13-1.7758 0.24-2.5191 0.33-0.826 0.05-1.7345 0.16-2.7256 0.33 0 0.68 0.0138 1.36 0.0413 2.02 0.881-0.11 2.1749-0.29 3.8819-0.54 0.2477 0 0.3716 0.57 0.3716 1.7 0 0.16-0.2891 0.31-0.8672 0.45-0.881 0.3-1.6106 0.5-2.1887 0.58-0.3304 0.05-0.7296 0.14-1.1976 0.25 0 0.55 0.0138 1.11 0.0413 1.69 0.8535-0.14 2.1336-0.37 3.8406-0.7 0.2477 0 0.3716 0.55 0.3716 1.65 0 0.19-0.2891 0.37-0.8672 0.54-0.8535 0.27-1.5555 0.45-2.1061 0.53-0.3579 0.03-0.7709 0.11-1.2389 0.25 0.0275 0.72 0.0413 1.42 0.0413 2.11m-0.4542 3.38c0.4129 0 0.6194 0.1 0.6194 0.29-0.9361 1.74-1.5693 2.93-1.8996 3.59-0.2203 0.67-0.4681 1.26-0.7433 1.78-0.2478 0.5-0.4132 0.99-0.4952 1.49-0.083 0.41-0.248 0.62-0.496 0.62-0.44 0-0.991-0.44-1.652-1.32-0.853-0.94-1.28-1.6-1.28-1.99 0-0.19 0.22-0.37 0.661-0.53 0.495-0.28 0.963-0.62 1.404-1.04 0.633-0.66 1.927-1.62 3.8817-2.89m5.575-0.16c0.2752 0 1.5554 0.51 3.8405 1.53 0.7984 0.41 1.4178 0.67 1.8583 0.78 0.3028 0.28 0.4543 1.27 0.4543 2.97 0 0.47-0.179 1.06-0.5369 1.78-0.2753 0.58-0.5368 0.87-0.7846 0.87-0.2203 0-0.4405-0.22-0.6607-0.66-1.1839-2.23-2.4916-4.19-3.9232-5.87-0.4405-0.38-0.6745-0.7-0.702-0.95 0-0.3 0.1514-0.45 0.4543-0.45m0.4955 24.45c-1.2389 0-2.6705 0.05-4.2948 0.16-0.0826 0.14-0.2203 0.33-0.413 0.58-0.6057 0.71-1.0049 1.8-1.1975 3.26-0.7985 8.12-1.1977 13.55-1.1976 16.27-0.0001 0.74 0.0412 1.41 0.1239 1.98 0.1651 0.77 0.2477 1.45 0.2477 2.03-0.0826 0.44-0.5781 0.66-1.4866 0.66-1.4863 0-2.3263-0.33-2.5193-0.99 0-0.33 0.041-0.61 0.124-0.83 0.028-0.3 0.041-0.7 0.041-1.2v-15.23l-8.92 8.63c-1.872 1.79-3.193 2.68-3.964 2.68-0.33 0-0.867-0.22-1.611-0.66-0.44-0.3-0.66-0.65-0.66-1.03 0-0.42 0.399-0.84 1.197-1.28 2.478-1.52 5.08-3.75 7.805-6.69 2.34-2.54 4.212-5.05 5.617-7.56-3.91 0.5-6.869 1.1-8.879 1.82-0.496 0-1.046-1.32-1.652-3.97l1.032-0.16h1.652c8.59-1.13 15.789-2.07 21.598-2.81 0.5508-0.22 1.1702-0.33 1.8585-0.33 0.2477 0.71 0.5643 1.4 0.9498 2.06 0.5781 1.02 0.9223 1.99 1.0324 2.89-0.1101 0.61-0.3304 0.95-0.6607 1.04-0.1928 0-0.8948-0.22-2.1061-0.66-1.3766-0.44-2.6155-0.66-3.7167-0.66m-4.7491 7.1c1.9547 0.77 3.758 1.4 5.4098 1.9 1.7069 0.6 3.6891 1.57 5.9467 2.89 0.2202 0.44 0.3303 0.87 0.3304 1.28-0.413 3.11-1.0738 4.67-1.9822 4.67-0.3029 0-0.5645-0.28-0.7847-0.83-1.2114-1.87-4.2948-5.08-9.2503-9.62 0-0.2 0.1101-0.29 0.3303-0.29m-12.926 28.37c0.358 0.16 0.689 0.62 0.992 1.36 0.412 0.72 0.977 1.41 1.693 2.07 0.715 0.82 1.101 1.66 1.156 2.52-0.083 0.68-0.468 1.03-1.156 1.03-1.074-0.39-2.051-0.66-2.932-0.83-0.909-0.16-1.363-0.89-1.363-2.19 0-1.24 0.206-2.27 0.619-3.09 0.331-0.5 0.661-0.79 0.991-0.87m6.154 7.97c0.302 0 0.454 0.55 0.454 1.65 0 0.25-0.262 0.47-0.785 0.66-2.78 0.85-5.093 1.39-6.938 1.61-1.651 0.19-3.647 0.65-5.988 1.36-0.357 0-0.688-0.35-0.991-1.07-0.192-0.55-0.289-1.09-0.289-1.61 0-0.3 0.207-0.45 0.62-0.45 1.404-0.11 6.043-0.83 13.917-2.15m-1.983 4.75c0.413 0.08 0.62 0.58 0.62 1.48 0 0.47-0.317 0.76-0.95 0.87-0.798 0.08-1.693 0.28-2.684 0.58-0.854 0.22-1.625 0.37-2.313 0.45-0.991 0.14-2.023 0.4-3.097 0.79-0.386 0-0.606-0.5-0.661-1.49 0-0.49 0.262-0.84 0.785-1.03 5.313-1.05 8.08-1.6 8.3-1.65m-0.165 4.33c0.413 0.06 0.62 0.49 0.62 1.28 0 0.44-0.317 0.73-0.95 0.87-0.771 0.06-1.625 0.21-2.561 0.46-0.826 0.19-1.569 0.31-2.23 0.37-0.963 0.13-1.968 0.36-3.014 0.66-0.358 0-0.565-0.44-0.62-1.32 0-0.39 0.207-0.66 0.62-0.83 5.203-0.96 7.915-1.46 8.135-1.49m-9.291 5.62l1.032 0.17c2.781-0.75 4.873-1.16 6.277-1.24 1.046-0.2 1.597-0.29 1.652-0.29 0.495 0 1.087 0.3 1.776 0.91 0.578 0.52 0.867 0.99 0.867 1.4 0 0.17-0.124 0.37-0.372 0.62-0.33 0.38-0.895 1.84-1.693 4.38-0.193 0.69-0.386 1.07-0.578 1.15-0.358 0-0.744-0.16-1.156-0.49-2.533 0.52-3.992 0.92-4.378 1.2-0.275 0.19-0.482 0.28-0.619 0.28-0.578-0.05-1.322-1.22-2.23-3.51-0.716-1.84-1.074-3.11-1.074-3.8 0-0.52 0.165-0.78 0.496-0.78m3.468 5.12c0.441 0 1.542-0.23 3.304-0.7 0.165-0.03 0.317-0.22 0.454-0.58 0.166-0.63 0.248-1.31 0.248-2.02 0-0.8-0.179-1.2-0.537-1.2-0.578 0-1.363 0.15-2.354 0.45-1.266 0.39-1.899 0.75-1.899 1.08 0.055 1.98 0.316 2.97 0.784 2.97m23.498-25.81c0.2753 0.08 0.4405 0.54 0.4956 1.36-0.0551 0.72-0.3992 1.33-1.0324 1.82-1.4867 0.36-2.877 0.63-4.1709 0.83-0.1102 0.77-0.3442 2.01-0.7021 3.71 2.5328-0.41 3.9507-0.62 4.2536-0.62 0.3853 0 1.0736 0.21 2.0648 0.62 0.936 0.39 1.404 0.79 1.404 1.2 0 0.19-0.1514 0.51-0.4542 0.95-0.4406 0.99-1.0462 2.63-1.8171 4.91 1.2389-0.13 2.3401-0.31 3.3037-0.53 0.881-0.22 1.583-0.33 2.1061-0.33 0.4405 0 0.9911 1.04 1.6519 3.14-0.0551 0.3-0.3442 0.45-0.8672 0.45l-2.1061-0.12c-1.4592 0-4.6252 0.15-9.4982 0.45-3.7442 0.36-6.979 0.91-9.7044 1.65-0.248 0-0.565-0.29-0.95-0.86-0.468-0.89-0.702-1.41-0.702-1.57 0-0.25 0.234-0.42 0.702-0.5 1.349-0.03 3.001-0.19 4.9556-0.49 0.055-0.09 0.1101-0.18 0.1651-0.29 0.4405-0.91 0.9223-2.61 1.4454-5.08-0.0826 0.02-0.179 0.05-0.2891 0.08-1.9822 0.77-3.207 1.16-3.675 1.16-0.303 0-0.455-0.4-0.455-1.2 0.111-1.19 0.427-1.85 0.95-1.98 0.8261 0 2.1614-0.16 4.006-0.46 0.3303-1.73 0.4955-3 0.4955-3.8-1.2664 0.19-2.643 0.46-4.1295 0.79-0.33 0-0.592-0.53-0.785-1.57-0.137-0.75-0.206-1.2-0.206-1.37 0-0.46 0.275-0.7 0.826-0.7 2.5876-0.05 6.2905-0.49 11.108-1.32 0.8538-0.16 1.3907-0.27 1.6109-0.33m-7.392 15.53c1.2664-0.14 2.5741-0.28 3.9232-0.41 0.63314-2.29 0.94975-3.8 0.94978-4.55-0.00003-0.74-0.26158-1.11-0.78463-1.11-0.88105 0.14-1.7482 0.29-2.6016 0.45-0.4681 2.15-0.9636 4.02-1.4867 5.62m3.9232 4.13c1.6242 0 3.0696 0.4 4.3361 1.2 0.9635 0.6 1.4453 1.1 1.4453 1.48 0 0.55-0.1927 1.05-0.5781 1.49-1.2665 1.38-2.1337 3.3-2.6017 5.78-0.1377 0.41-0.3441 0.62-0.61942 0.62-0.19275 0-0.67453-0.15-1.4454-0.45-0.79838-0.22-1.6381-0.33-2.5191-0.33-0.7984 0-1.9271 0.13-3.3862 0.41-0.7159 0.25-1.294 0.37-1.7345 0.37-0.3304 0-0.5644-0.21-0.702-0.62-0.3579-1.07-0.7847-2.08-1.2801-3.01-0.633-1.13-1.074-2.14-1.322-3.02-0.22-0.6-0.33-1.07-0.33-1.4 0-0.44 0.496-0.79 1.487-1.04 4.1018-0.99 7.1852-1.48 9.2501-1.48m-5.4511 7.47c1.4866 0 3.0146-0.27 4.5838-0.82 0.5506-0.17 0.94983-0.6 1.1976-1.28 0.30284-0.8 0.45426-1.53 0.45429-2.19-0.00003-0.8-0.44052-1.2-1.3215-1.2-1.4591 0-3.1661 0.33-5.1207 0.99-0.5231 0.25-0.7847 0.59-0.7846 1.03-0.0001 0.44 0.1101 1.31 0.3303 2.61 0.1101 0.57 0.3304 0.86 0.6608 0.86m4.1296 18.17c-1.1013 0-3.3037 0.14-6.6074 0.42-0.3855 1.12-0.8672 2.05-1.4452 2.76 1.8719-0.27 3.4412-0.41 4.7076-0.41 0.6882 0 1.6518 0.23 2.8907 0.7 0.8259 0.39 1.2389 0.77 1.2389 1.16 0 0.3-0.0964 0.76-0.2891 1.36-0.1927 0.99-0.5368 5.01-1.0324 12.06 2.3952-0.25 4.6527-0.48 6.7726-0.7 0.6882-0.22 1.4729-0.33 2.3539-0.33 0.1927 0.57 0.4405 1.14 0.7433 1.69 0.5231 0.85 0.8259 1.67 0.9085 2.44-0.0826 0.46-0.2478 0.73-0.4955 0.78-0.1928 0-0.7847-0.16-1.7757-0.49-1.1013-0.42-2.1062-0.62-3.0147-0.62-3.5515 0-8.2455 0.24-14.082 0.74-0.055 0.25-0.206 0.59-0.454 1.03-0.496 1.05-1.198 2.05-2.106 3.02-0.441 0.49-0.744 1.13-0.909 1.9-0.22 0.71-0.867 1.17-1.941 1.36-1.927 0.58-3.634 0.87-5.12 0.87-1.102 0-1.652-0.18-1.652-0.54 0-0.17 0.358-0.4 1.073-0.7 2.864-1.3 4.818-2.51 5.865-3.64 0.798-0.91 1.362-1.9 1.693-2.97-4.295 0.47-7.626 1.03-9.994 1.69-0.385 0-0.826-1.03-1.322-3.09l0.868-0.21h1.321c2.45-0.25 4.818-0.5 7.103-0.74v-0.21c0-6.14-0.344-10.88-1.032-14.21 0.082-0.88 0.303-1.32 0.66-1.32 0.248 0 0.689 0.15 1.322 0.46 0.303-0.14 0.702-0.25 1.198-0.33 0.66-0.11 1.307-0.22 1.94-0.33 0.083-0.25 0.166-0.56 0.248-0.91 0.22-0.53 0.454-1.17 0.702-1.94-2.698 0.41-5.038 0.97-7.02 1.69-0.33 0-0.73-0.33-1.198-0.99-0.55-1.02-0.826-1.61-0.826-1.78 0-0.36 0.289-0.59 0.868-0.7 1.569-0.03 3.62-0.27 6.153-0.74 0.853-0.09 1.734-0.18 2.643-0.29 0.247-1.24 0.495-2.66 0.743-4.26 0.138-0.52 0.427-0.78 0.8673-0.78 0.4129 0 1.0736 0.18 1.9822 0.54 0.8809 0.46 1.3214 0.84 1.3215 1.11-0.0001 0.25-0.1377 0.47-0.413 0.66-0.3029 0.47-0.647 1.23-1.0324 2.27 0.1376-0.02 0.289-0.05 0.4543-0.08 1.7894-0.08 3.3036-0.26 4.5425-0.54 0.7984-0.22 1.4316-0.33 1.8997-0.33 0.44043 0 0.99104 1.05 1.6518 3.14-0.05508 0.33-0.34415 0.5-0.86721 0.5l-2.1061-0.17m-11.935 19.25c2.973-0.31 5.7814-0.61 8.4244-0.91-0.0826-4.21-0.1239-8.07-0.1239-11.56-0.0551-1.33-0.5093-1.99-1.3628-1.99-1.8996 0-4.3497 0.57-7.3507 1.7 0 0.11 0.014 0.22 0.041 0.33 0 0.33 0.014 0.66 0.042 0.99 4.047-0.66 6.1527-1.01 6.3179-1.03 0.4405 0.05 0.6607 0.55 0.6608 1.48-0.0001 0.41-0.3442 0.69-1.0324 0.83-0.6333 0.05-1.3763 0.19-2.2303 0.41-0.66 0.17-1.307 0.28-1.941 0.33-0.523 0.08-1.087 0.19-1.693 0.33 0.028 0.5 0.041 0.99 0.042 1.49 4.157-0.61 6.3316-0.91 6.5243-0.91 0.4129 0.05 0.6194 0.55 0.6194 1.49 0 0.41-0.3166 0.67-0.9498 0.78-0.6883 0.06-1.4729 0.19-2.3539 0.41-0.743 0.14-1.432 0.24-2.065 0.29-0.55 0.06-1.129 0.15-1.734 0.29v1.45c4.24-0.61 6.4557-0.92 6.6485-0.95 0.4129 0.08 0.6194 0.59 0.6194 1.53 0 0.41-0.3166 0.67-0.9498 0.78-0.6883 0.08-1.4591 0.22-2.3121 0.41-0.716 0.14-1.377 0.24-1.983 0.29-0.605 0.08-1.239 0.18-1.899 0.29 0.027 0.66 0.041 1.14 0.041 1.45m7.4333 2.85c0.7984 0.13 2.0785 0.52 3.8405 1.15 1.6794 0.53 3.111 1.42 4.2949 2.69 0.0825 0.24 0.1238 0.52 0.1238 0.82-0.3579 2.21-1.0599 3.31-2.1061 3.31-0.4956 0-0.9223-0.33-1.2801-0.99-1.3216-2.21-3.0009-4.19-5.0382-5.95-0.3028-0.28-0.4543-0.5-0.4542-0.66-0.0001-0.25 0.2064-0.37 0.6194-0.37m4.5013 16.72c0.4129 0 1.1287 0.21 2.1474 0.62 0.99106 0.44 1.4866 0.88 1.4867 1.32-0.0001 0.31-0.2203 0.8-0.66079 1.49-0.22028 0.55-0.49558 1.24-0.82592 2.06 1.404-0.16 2.7668-0.31 4.0883-0.45 0.6882-0.28 1.4729-0.41 2.3539-0.41 0.1927 0.55 0.4267 1.08 0.702 1.61 0.4405 0.82 0.702 1.61 0.7847 2.35-0.0827 0.39-0.2616 0.59-0.5369 0.62-0.1377 0-0.6745-0.15-1.6105-0.45-1.0462-0.33-1.9823-0.5-2.8082-0.5-1.1838 0-2.4778 0.04-3.8818 0.12-0.358 1.02-0.7159 2.15-1.0737 3.39 0.055-0.03 0.0963-0.04 0.1239-0.04 0.3303 0 0.4955 0.66 0.4955 1.98 0 0.3-0.3166 0.57-0.9498 0.79-3.3863 0.68-6.2357 1.11-8.5484 1.28-0.495 0.05-1.032 0.11-1.61 0.16-0.661 1.35-1.446 2.78-2.354 4.3 4.652-1.05 8.1625-1.57 10.53-1.57 1.7346 0 3.2626 0.4 4.5841 1.19 0.991 0.67 1.4866 1.2 1.4866 1.62 0 0.6-0.1927 1.12-0.57812 1.56-1.3215 1.41-2.23 3.4-2.7256 5.99-0.1652 0.58-0.3717 0.87-0.6194 0.87-0.1928 0-0.7021-0.17-1.528-0.5-0.8259-0.24-1.6931-0.37-2.6016-0.37-1.1013 0-2.7118 0.18-4.832 0.54-0.991 0.33-1.803 0.49-2.436 0.49-0.303 0-0.537-0.22-0.702-0.66-0.358-1.12-0.799-2.17-1.322-3.13-0.468-0.94-0.826-1.79-1.073-2.56-1.184 0.68-2.506 1.29-3.965 1.81-1.927 1.02-4.033 1.53-6.318 1.53-0.22 0-0.331-0.05-0.331-0.16 0-0.47 1.377-1.53 4.13-3.18 3.579-2.34 6.195-4.81 7.846-7.4-0.908 0.17-1.872 0.33-2.89 0.5-0.358 0-0.702-0.33-1.033-0.99-0.22-0.53-0.33-1.01-0.33-1.45 0-0.33 0.234-0.49 0.702-0.49 0.798-0.06 2.491-0.25 5.079-0.58 0.578-1.35 1.005-2.63 1.281-3.84-5.341 0.71-9.402 1.64-12.183 2.76-0.385 0-0.812-1.15-1.28-3.46l0.95-0.17h1.363c4.074-0.55 7.901-1.06 11.48-1.53 0.027-0.3 0.041-0.63 0.041-0.99-0.055-0.63-0.275-1.29-0.661-1.98l-0.165-0.33c-0.22 0.05-0.426 0.1-0.619 0.12-2.808 0.83-4.515 1.24-5.121 1.24-0.358 0-0.537-0.4-0.537-1.2 0.138-1.29 0.537-1.99 1.198-2.1 1.624 0 4.887-0.4 9.787-1.2 3.6341-0.41 5.6576-0.62 6.0706-0.62m-8.9616 12.97c1.5695-0.22 3.3728-0.46 5.4101-0.7 0.4129-1.38 0.7846-2.59 1.115-3.64-1.7069 0.14-3.4964 0.32-5.3681 0.54-0.248 1.13-0.634 2.39-1.157 3.8m2.3542-9.91c0.5506 0.22 0.8259 0.45 0.8259 0.7 0 0.22-0.2203 0.65-0.6607 1.28-0.2478 0.36-0.4956 0.92-0.7434 1.69 1.8721-0.25 3.6616-0.49 5.3686-0.74 0.1926-0.94 0.289-1.68 0.289-2.23 0-0.88-0.3166-1.32-0.9498-1.32-1.4041 0.19-2.7806 0.4-4.1296 0.62m-2.9732 23.7c2.1197 0 4.3084-0.33 6.566-0.99 0.6056-0.19 1.0461-0.63 1.3214-1.32 0.3304-0.85 0.4956-1.64 0.4956-2.36 0-0.85-0.4818-1.28-1.4454-1.28-1.9547 0-4.2535 0.39-6.8966 1.16-0.688 0.36-1.032 0.8-1.032 1.32 0 0.44 0.11 1.31 0.33 2.6 0.11 0.58 0.33 0.87 0.661 0.87m6.7311 15.98c0.881 0 2.2438 0.59 4.0884 1.78 1.1562 0.82 1.7344 1.55 1.7344 2.19-0.00002 0.33-0.38545 0.75-1.1563 1.28-1.762 0.82-4.3086 2.39-7.6398 4.71 0.4956 0.79 0.8535 1.55 1.0737 2.27 4.047-0.55 7.7224-1.06 11.026-1.53 0.6883-0.28 1.4592-0.41 2.3127-0.41 0.2202 0.66 0.4955 1.29 0.8259 1.9 0.5506 0.96 0.881 1.87 0.9911 2.72-0.1101 0.47-0.3304 0.74-0.6607 0.83-0.1928 0-0.8397-0.21-1.9409-0.62-1.1839-0.5-2.2438-0.75-3.1798-0.75-2.4228 0-5.3823 0.18-8.8787 0.54 0.0825 1.02 0.1238 2.23 0.1239 3.63-0.0001 2.87-0.1377 5.36-0.413 7.48-0.1927 1.95-0.3855 3.39-0.5781 4.29-0.1653 0.58-0.2754 1.17-0.3304 1.78-0.0826 0.66-0.1928 0.99-0.3304 0.99-0.4405 0-0.8535-0.08-1.2389-0.25-0.5506-0.19-1.2392-0.33-2.0652-0.41-1.431-0.19-2.932-0.89-4.501-2.11-2.202-1.92-3.304-3.16-3.304-3.71 0-0.2 0.179-0.29 0.537-0.29 0.468 0 1.184 0.36 2.148 1.07 2.23 0.94 3.826 1.41 4.79 1.41 0.441 0 0.867-0.75 1.28-2.23 0.468-1.46 0.7022-4.13 0.7023-8.02-0.0001-1.18-0.0964-2.27-0.2893-3.26-0.743 0.06-1.514 0.14-2.312 0.25-5.369 0.69-9.416 1.58-12.141 2.68-0.413 0-0.84-1.15-1.281-3.46l0.95-0.21h1.363c4.542-0.63 8.782-1.24 12.719-1.82 0 0-0.014-0.01-0.041-0.04-0.688-1.43-1.501-2.3-2.437-2.6-0.468-0.17-0.702-0.37-0.702-0.62 0-0.28 0.386-0.63 1.157-1.07 0.743-0.39 1.514-0.58 2.312-0.58 0.413 0 0.7848 0.22 1.1152 0.66 0.1101 0.11 0.2065 0.22 0.2891 0.33 2.5053-3.19 3.7992-5.12 3.8818-5.78 0-0.8-0.4818-1.2-1.4453-1.2-0.9086 0.11-2.3677 0.69-4.3778 1.73-2.257 1.11-4.005 2.12-5.244 3.06-0.413 0.33-0.799 0.5-1.157 0.5-0.413 0-0.936-0.73-1.569-2.19-0.688-1.02-1.032-1.65-1.032-1.9s0.33-0.42 0.991-0.5c1.294-0.11 3.51-0.56 6.649-1.36 3.2758-0.77 5.6709-1.16 7.1851-1.16" transform="scale(.80681 1.2395)"/>
    <path id="text3720" d="m935.83 402.14c0.46 0 0.7 0.77 0.7 2.31 0 0.39-0.44 0.73-1.32 1.03-1.05 0.33-2 0.61-2.85 0.83-0.06 1.27-0.1 2.27-0.13 3.01 1.6-0.35 3.31-0.77 5.12-1.23 0.42 0 0.62 0.67 0.62 2.02 0 0.3-0.31 0.58-0.95 0.82-1.7 0.56-3.26 1-4.66 1.33 0 0.93-0.02 1.9-0.05 2.89 0.91-0.14 2.26-0.39 4.05-0.75 0.44 0 0.66 0.65 0.66 1.94 0 0.31-0.34 0.6-1.03 0.87-0.88 0.36-1.65 0.59-2.31 0.7-0.44 0.09-0.97 0.24-1.57 0.46-0.06 0.74-0.11 1.5-0.17 2.27 0.75 0.22 1.78 0.44 3.1 0.66 1.96 0.44 4.67 1.51 8.14 3.22 1.68 0.88 3.31 1.43 4.91 1.65 0.85 0.14 2.55 0.55 5.08 1.24 1.54 0.41 2.86 0.97 3.96 1.65 0 0.8-2.18 1.2-6.56 1.2-2.76-0.36-4.9-0.55-6.44-0.58-0.94 0-1.48-0.29-1.61-0.86-0.09-1.13-0.75-1.96-1.99-2.48-1.21-0.58-2.52-1.06-3.92-1.45-1.24-0.24-4.06-1.13-8.47-2.64-1.18-0.39-2.09-0.58-2.72-0.58-0.08-0.03-0.17-0.08-0.25-0.16-0.03 0.05-0.05 0.11-0.08 0.16-0.39 0.69-0.65 1.56-0.79 2.6-0.16 0.94-0.71 1.57-1.65 1.9-1.62 0.72-3.07 1.08-4.33 1.08-0.86 0-1.28-0.1-1.28-0.29 0-0.22 0.3-0.55 0.9-0.99 2.43-1.74 4.06-3.35 4.92-4.83 0.85-1.57 1.42-3.34 1.69-5.29 0.03-0.55 0.15-0.83 0.37-0.83 1.54 0 2.32 0.29 2.32 0.87 0 0.33-0.14 0.91-0.42 1.73-0.03 0.06-0.04 0.13-0.04 0.21 0.28 0.14 0.58 0.33 0.91 0.58 0.36 0.38 0.87 0.76 1.53 1.11v-6.6c-0.36 0.08-0.7 0.13-1.03 0.16-2.04 0.31-4.55 0.9-7.52 1.78-0.39 0-0.73-0.33-1.03-0.99-0.2-0.53-0.29-1.01-0.29-1.45 0-0.33 0.2-0.49 0.62-0.49 1.21-0.11 4.32-0.75 9.33-1.9 0-0.83 0.01-1.85 0.04-3.06-1.02 0.19-2.2 0.51-3.55 0.95-0.44 0-0.83-0.39-1.16-1.16-0.22-0.63-0.33-1.22-0.33-1.77 0-0.47 0.26-0.7 0.79-0.7 0.63-0.06 2.06-0.31 4.29-0.75 0-2.17 0.02-4.72 0.04-7.64 0-0.46 0.38-0.7 1.12-0.7 1.79 0 2.68 0.35 2.68 1.03-0.19 0.58-0.33 1.41-0.41 2.48-0.11 1.52-0.19 2.89-0.25 4.13 0.99-0.19 2.08-0.43 3.27-0.7m9.78 1.36c0.61 0 1.54 0.33 2.81 0.99 1.43 0.72 2.15 1.26 2.15 1.61 0 0.11-0.22 0.32-0.66 0.62-0.5 0.5-1.26 1.6-2.27 3.31 0.19 0.33 0.28 0.78 0.28 1.36 0 0.52-0.39 0.87-1.19 1.03-0.61 0.06-1.32 0.19-2.15 0.41-0.66 0.17-1.29 0.28-1.9 0.33-0.58 0.09-1.18 0.21-1.82 0.38-0.13 1.26-0.2 2.31-0.2 3.14 0 0.82 0.22 1.44 0.66 1.85 0.49 0.44 1.8 0.66 3.92 0.66 1.82 0 2.93-0.2 3.35-0.62 0.55-0.46 0.82-1.96 0.82-4.5 0-0.22 0.06-0.33 0.17-0.33 0.24 0 0.6 0.36 1.07 1.08 1.05 1.73 1.57 3.38 1.57 4.95 0 0.58 0.05 0.98 0.16 1.2 0.11 0.17 0.17 0.29 0.17 0.37 0 0.22-0.19 0.33-0.58 0.33-0.41 0-0.81 0.06-1.2 0.17-0.52 0.08-2.36 0.12-5.53 0.12-2.48 0-3.83-0.1-4.05-0.29-0.22-0.16-0.48-0.3-0.78-0.41-0.36-0.11-0.87-0.61-1.53-1.49-0.71-1.07-1.07-2.1-1.07-3.09 0-1 0.27-3.46 0.82-7.4 0.14-0.93 0.21-1.81 0.21-2.64 0-0.36-0.04-0.73-0.12-1.11-0.14-0.28-0.21-0.51-0.21-0.71 0-0.22 0.16-0.42 0.49-0.62 0.25-0.24 0.86-0.37 1.82-0.37 0.41 0 0.77 0.04 1.08 0.13 0.46-0.11 1.03-0.22 1.69-0.33 0.8-0.09 1.47-0.13 2.02-0.13m-3.63 3.14c-0.3 1.43-0.54 2.74-0.7 3.92 1.04-0.16 1.95-0.3 2.72-0.41 0.97-2.06 1.45-3.18 1.45-3.34 0-0.69-0.33-1.04-0.99-1.04-0.91 0.11-1.74 0.4-2.48 0.87m1.98 30.68c0.66 0 1.21 1.01 1.65 3.02 0 0.27-0.23 0.44-0.7 0.49-1.76 0-4.13 0.39-7.1 1.16-0.72 0.14-1.39 0.58-2.03 1.32 0.11-0.03 0.24-0.04 0.38-0.04 1.21 0 2.12 0.22 2.72 0.66 0.39 0.3 0.58 0.81 0.58 1.53v2.1c1.93-0.35 4.09-0.79 6.48-1.32 0.42 0 0.62 0.84 0.62 2.52 0 0.31-0.37 0.58-1.11 0.83-2.23 0.66-4.23 1.15-5.99 1.48v4.05c3.99-0.49 7.6-0.96 10.82-1.4 0.66-0.25 1.42-0.37 2.27-0.37 0.25 0.68 0.54 1.33 0.87 1.94 0.55 0.96 0.86 1.87 0.95 2.72-0.11 0.47-0.35 0.73-0.7 0.79-0.17 0-0.79-0.2-1.86-0.58-1.21-0.5-2.3-0.74-3.27-0.74-2.45 0-5.47 0.2-9.08 0.62v9.45c0 1.68-0.08 3.1-0.25 4.26-0.22 1.01-0.56 1.52-1.03 1.52-0.25 0-0.8-0.22-1.65-0.66-0.91-0.55-1.78-0.96-2.6-1.24-0.75-0.22-1.97-1.04-3.68-2.47-1.13-0.8-1.69-1.31-1.69-1.53 0-0.33 0.22-0.5 0.66-0.5 2.48 0.88 4.36 1.32 5.66 1.32 0.85 0 1.28-0.78 1.28-2.35v-7.43c-0.58 0.05-1.17 0.12-1.78 0.2-5.2 0.75-9.11 1.68-11.73 2.81-0.55 0-1.1-1.33-1.65-4l1.11-0.33h1.49c4.52-0.58 8.7-1.12 12.56-1.62v-3.96c-1.79 0.28-3.93 0.77-6.41 1.49-0.44 0-0.82-0.42-1.15-1.24-0.22-0.61-0.33-1.2-0.33-1.78 0-0.41 0.26-0.62 0.78-0.62 1.02-0.08 3.39-0.49 7.11-1.24v-0.74c0-1.05-0.27-1.9-0.79-2.56-0.22-0.14-0.37-0.26-0.45-0.37-0.75 0.6-1.77 0.96-3.06 1.07-2.31 0.44-3.96 0.66-4.95 0.66-0.53 0-0.79-0.15-0.79-0.45 2.64-1.98 5.23-3.66 7.76-5.04 2.15-1.13 4.23-1.83 6.24-2.11 1.35-0.11 2.63-0.55 3.84-1.32m-9.08 41.67c0.3 0 0.92 0.32 1.85 0.95 0.83 0.63 1.24 1.09 1.24 1.36 0 0.2-0.2 0.42-0.62 0.66-1.37 1.27-2.97 3.2-4.79 5.79-0.05 0.02-0.08 0.06-0.08 0.12 1.76-0.22 6.14-1.1 13.13-2.64 0.44 0 0.66 0.71 0.66 2.14 0 0.33-0.4 0.62-1.19 0.87-2.62 0.88-4.81 1.45-6.57 1.69-1.54 0.22-3.41 0.71-5.62 1.45-0.44 0-0.82-0.41-1.15-1.24-0.11-0.27-0.2-0.55-0.25-0.82-0.19 0.44-0.33 0.88-0.41 1.32-0.22 0.77-0.68 1.41-1.37 1.94-0.22 0.19-0.44 0.36-0.66 0.49 0.22 0.06 0.46 0.11 0.7 0.17 1 0.19 1.49 0.38 1.49 0.58 0 0.08-0.03 0.29-0.08 0.62-0.06 0.38-0.08 0.63-0.08 0.74 0 0.36 0.01 0.71 0.04 1.07 0.52-0.08 1.06-0.18 1.61-0.29 0.36-0.05 0.7-0.09 1.03-0.12-0.14-0.94-0.3-1.61-0.5-2.02-0.22-0.44-0.34-0.83-0.37-1.16 0-0.33 0.61-0.5 1.82-0.5 0.85 0 1.28 0.29 1.28 0.87 0 0.8 0.01 1.64 0.04 2.52 0.91-0.11 1.85-0.23 2.81-0.37l0.16-2.52c0-0.25-0.05-0.51-0.16-0.78 0-0.14 0.07-0.28 0.21-0.42 0.19-0.16 0.56-0.25 1.11-0.25 0.36 0 0.81 0.07 1.36 0.21 0.42 0.19 0.62 0.35 0.62 0.46 0 0.05-0.07 0.15-0.2 0.28-0.31 0.28-0.5 0.73-0.58 1.37-0.06 0.47-0.11 0.92-0.17 1.36 1.02-0.03 1.96-0.1 2.81-0.21 0.08-1.07 0.18-2.23 0.29-3.47 0-0.46 0.39-0.7 1.16-0.7 1.65 0 2.47 0.29 2.47 0.87-0.49 0.44-0.82 1.05-0.99 1.82-0.08 0.35-0.15 0.69-0.2 0.99 0.08-0.03 0.18-0.04 0.29-0.04 0.99-0.31 1.79-0.46 2.39-0.46 0.41 0 0.91 1.05 1.49 3.14-0.06 0.22-0.35 0.33-0.87 0.33l-2.11-0.16c-0.44 0-1.01 0.01-1.73 0.04-0.36 1.92-0.59 3.31-0.7 4.17 1.57-0.17 3.05-0.32 4.46-0.46 0.69-0.19 1.44-0.28 2.27-0.28 0.19 0.49 0.43 0.99 0.7 1.48 0.41 0.75 0.66 1.46 0.75 2.15-0.09 0.47-0.24 0.73-0.46 0.78-0.16 0-0.7-0.15-1.61-0.45-0.99-0.33-1.89-0.5-2.68-0.5-3.53 0-8.29 0.27-14.29 0.79-5.23 0.55-9.17 1.21-11.81 1.98-0.36 0-0.76-0.98-1.2-2.93l0.87-0.17h1.11c2.04-0.24 3.99-0.46 5.87-0.66 0.02-0.11 0.05-0.22 0.08-0.33 0.03-0.27 0.04-0.55 0.04-0.82-0.19-0.97-0.39-1.86-0.58-2.69-1.16 0.31-2.23 0.65-3.22 1.03-0.3 0-0.66-0.31-1.07-0.95-0.53-0.88-0.79-1.4-0.79-1.56 0-0.31 0.29-0.51 0.87-0.62 1.07-0.06 2.31-0.17 3.72-0.33-0.28-1.38-0.49-2.34-0.62-2.89-0.44 0.22-0.86 0.38-1.24 0.49-0.91 0.25-1.75 0.55-2.52 0.91-0.14 0-0.21-0.11-0.21-0.33 0-0.28 0.3-0.69 0.91-1.24 2.26-2.4 4.14-4.68 5.66-6.86 1.7-2.53 3-4.9 3.88-7.1 0.16-0.44 0.33-0.66 0.5-0.66m-3.06 23.71c0.83-0.09 1.61-0.17 2.35-0.25-0.02-1.68-0.09-3.13-0.2-4.34-0.97 0.17-1.88 0.33-2.73 0.5 0.14 1.35 0.33 2.71 0.58 4.09m4.46-0.5c0.74-0.08 1.47-0.15 2.19-0.21 0.03-0.16 0.04-0.35 0.04-0.58l0.21-3.88c-0.58 0.06-1.17 0.11-1.78 0.17-0.28 0.03-0.56 0.05-0.87 0.08 0.06 1.4 0.13 2.88 0.21 4.42m4.58-0.45c0.75-0.09 1.48-0.18 2.19-0.29 0.25-1.05 0.48-2.48 0.7-4.3-0.85 0.06-1.79 0.13-2.8 0.21-0.09 1.32-0.13 2.3-0.13 2.93 0 0.47 0.02 0.88 0.04 1.24v0.21m-11.97 4c0.47 0 0.7 0.11 0.7 0.33-0.69 2.01-1.13 3.42-1.32 4.21-0.14 0.77-0.3 1.48-0.5 2.11-0.16 0.55-0.3 1.13-0.41 1.73-0.06 0.47-0.15 0.71-0.29 0.71-0.44 0-0.99-0.46-1.65-1.37-0.86-0.93-1.28-1.58-1.28-1.94 0-0.22 0.22-0.38 0.66-0.49 0.38-0.36 0.76-0.83 1.11-1.41 0.5-0.91 1.49-2.2 2.98-3.88m4.66 0.5c0.22 0.13 0.46 0.59 0.71 1.36 0.33 0.77 0.74 1.47 1.23 2.11 0.53 0.85 0.82 1.73 0.87 2.64-0.05 0.44-0.29 0.66-0.7 0.66-0.77-0.52-1.47-0.91-2.11-1.16-0.68-0.19-1.03-1.18-1.03-2.97 0-0.85 0.14-1.56 0.41-2.11 0.2-0.33 0.4-0.51 0.62-0.53m6.78-0.33c0.24 0.13 0.51 0.57 0.78 1.32 0.36 0.71 0.83 1.4 1.41 2.06 0.6 0.83 0.92 1.67 0.94 2.52-0.02 0.47-0.26 0.7-0.7 0.7-0.85-0.52-1.62-0.88-2.31-1.07-0.77-0.19-1.16-1.17-1.16-2.93 0-0.8 0.13-1.49 0.38-2.07 0.24-0.33 0.46-0.51 0.66-0.53m4.75-1.2c0.3 0 1.59 0.67 3.88 2.02 0.77 0.58 1.39 0.94 1.86 1.08 0.27 0.33 0.41 1.61 0.41 3.84 0 0.52-0.17 1.13-0.5 1.81-0.3 0.58-0.59 0.87-0.86 0.87-0.2 0-0.4-0.23-0.62-0.7-1.19-2.75-2.48-5.18-3.89-7.27-0.46-0.5-0.73-0.87-0.78-1.11 0-0.36 0.17-0.54 0.5-0.54m-21.81 27.13c0.22 0 0.68 0.1 1.36 0.29 0.22-0.11 0.49-0.21 0.79-0.29 2.64-0.8 6.37-1.47 11.19-2.02 3.41-0.44 6.3-0.66 8.67-0.66 3.2 0 5.54 0.41 7.02 1.23 0.91 0.58 1.37 1.12 1.37 1.62 0 0.16-0.09 0.35-0.25 0.57-0.47 0.66-0.83 1.81-1.08 3.43-1.15 6.91-2.24 11.19-3.26 12.84-0.66 1.6-1.16 2.98-1.49 4.13-0.16 0.86-0.5 1.28-1.03 1.28-0.19 0-0.45-0.11-0.78-0.33-0.72-0.66-1.59-1.35-2.6-2.06-0.53-0.33-1.17-0.98-1.95-1.94-1.1 0.11-2.28 0.29-3.55 0.53-1.46 0.25-2.8 0.45-4.04 0.58-1.71 0.14-3.5 0.4-5.37 0.79-0.14 0-0.26-0.04-0.37-0.13-0.31 0.03-0.64 0.07-0.99 0.13-0.8 0-1.82-2-3.06-5.99-1.16-4.41-1.74-8.81-1.74-13.22 0-0.52 0.39-0.78 1.16-0.78m4.79 16.64c0.11-0.05 0.24-0.09 0.37-0.12 9.2-0.96 13.97-1.47 14.33-1.53 0.58 0.11 0.87 0.72 0.87 1.82 0 0.14-0.01 0.26-0.04 0.37 0.74-0.55 1.39-1.79 1.94-3.72 1.38-4.59 2.06-8.42 2.06-11.48-0.05-1.43-1.55-2.15-4.5-2.15-2.03 0-4.81 0.28-8.34 0.83-3.27 0.74-6.06 1.67-8.34 2.77-0.19 2.09-0.29 3.7-0.29 4.83 0 2.09 0.65 4.89 1.94 8.38m2.48-11.73l1.2 0.21c3.16-0.71 5.52-1.13 7.06-1.24 1.18-0.16 1.8-0.25 1.86-0.25 0.57 0 1.28 0.31 2.1 0.91 0.69 0.58 1.04 1.09 1.04 1.53 0 0.17-0.2 0.37-0.58 0.62-0.47 0.41-1.27 1.93-2.4 4.54-0.27 0.69-0.55 1.08-0.82 1.16-0.39 0-0.83-0.18-1.33-0.54-2.89 0.5-4.52 0.87-4.91 1.12-0.3 0.13-0.54 0.2-0.7 0.2-0.58-0.02-1.27-1.18-2.07-3.47-0.6-1.84-0.91-3.09-0.91-3.75 0-0.69 0.16-1.04 0.46-1.04m3.3 5.29c0.5 0 1.71-0.16 3.64-0.5 0.41-0.02 0.73-0.2 0.95-0.53 0.38-0.64 0.57-1.27 0.57-1.9 0-0.88-0.22-1.32-0.66-1.32-0.63 0-1.5 0.12-2.6 0.37-1.35 0.41-2.02 0.78-2.02 1.11 0 1.85 0.04 2.77 0.12 2.77m11.44 32.25c0.47 0.11 0.95 1.27 1.45 3.47-0.06 0.33-0.37 0.54-0.95 0.62-3.36 1.21-6.29 2.13-8.8 2.77-0.08 0.33-0.15 0.66-0.21 0.99 0 0.03 0.02 0.05 0.05 0.08 0.55 1.16 2.43 3.17 5.65 6.03 3.8 3.22 6.72 5.34 8.76 6.36 1.49 0.61 2.75 1.32 3.8 2.15 0.88 0.52 1.32 0.95 1.32 1.28-0.08 0.36-0.47 0.53-1.16 0.53-3.41 0-6.32-0.22-8.71-0.66-1.35-0.33-2.08-0.9-2.19-1.73 0-1.13-0.25-1.96-0.74-2.48-1.87-2.5-4.5-4.86-7.89-7.06-0.06-0.03-0.1-0.05-0.12-0.08-1.19 3.08-3.29 5.92-6.32 8.5-1.1 0.91-1.83 1.68-2.19 2.32-0.19 0.44-0.39 0.66-0.58 0.66-1.4-0.19-2.59-0.29-3.55-0.29-0.69 0-1.65-0.26-2.89-0.79-0.66-0.33-0.99-0.57-0.99-0.74 0-0.33 0.26-0.54 0.78-0.62 4.02-0.55 7.35-2.2 10-4.95 1.57-2.01 2.82-4.93 3.75-8.76-0.38 0.06-0.77 0.11-1.15 0.17-2.62 0.33-4.5 0.77-5.66 1.32-0.41 0-0.8-0.91-1.16-2.73-0.13-0.96-0.24-1.66-0.33-2.1 0.09-0.58 0.43-0.9 1.04-0.95 2.94-0.11 5.68-0.36 8.21-0.75 0.58-3.41 0.87-6.74 0.87-9.99l-0.33-2.35c0-0.5 0.5-0.76 1.49-0.79 0.49 0 1.19 0.12 2.1 0.37 1.02 0.28 1.53 0.65 1.53 1.12-0.05 0.14-0.29 0.38-0.7 0.74-0.47 0.55-0.84 1.34-1.12 2.35-0.08 2.51-0.28 5.11-0.62 7.81-0.02 0.08-0.04 0.15-0.04 0.21 1.88-0.36 3.61-0.82 5.21-1.37 1.13-0.38 1.92-0.6 2.39-0.66m-0.53 45.43c-0.86 0-2.39 0.09-4.59 0.29-0.25 1.59-0.55 3.37-0.91 5.32-0.33 1.79-0.69 3.34-1.07 4.63 1.54 0.8 3.48 2.17 5.82 4.13 1.38 1.21 2.73 1.97 4.05 2.27 0.74 0.19 2.17 0.8 4.29 1.82 1.3 0.52 2.4 1.29 3.31 2.31 0 0.58-1.53 0.87-4.59 0.87-2.39-0.5-4.29-0.77-5.7-0.83-0.82 0-1.29-0.4-1.4-1.2-0.05-1.59-0.63-2.78-1.73-3.55-1.08-0.82-2.25-1.5-3.51-2.02-0.39-0.14-0.97-0.4-1.74-0.79-0.08 0.17-0.18 0.33-0.29 0.5-1.04 1.84-2.56 3-4.54 3.47-2.01 0.66-3.3 1.27-3.88 1.82-0.44 0.41-1.1 0.62-1.98 0.62-3.23 0-5.26-0.49-6.12-1.45-0.44-0.63-0.78-1.06-1.03-1.28-0.33-0.19-0.49-0.39-0.49-0.58 0-0.33 0.28-0.49 0.86-0.49 0.33 0 0.87 0.07 1.61 0.2 1.3 0.31 2.41 0.46 3.35 0.46 1.15 0 2.32-0.29 3.51-0.87 2.2-0.77 3.69-1.6 4.46-2.48 0.38-0.36 0.76-0.91 1.11-1.65-0.68-0.36-1.43-0.77-2.23-1.24-1.04-0.58-1.85-0.87-2.43-0.87-0.42-0.11-0.62-1.11-0.62-3.01 0-1.29 0.38-1.94 1.15-1.94 0.44 0 0.97 0.43 1.57 1.28 0.58 0.96 1.66 1.91 3.22 2.85 0.14 0.11 0.29 0.2 0.46 0.29 0.3-0.86 0.59-1.83 0.87-2.93 0.33-1.3 0.66-3.07 0.99-5.33-0.25 0.03-0.48 0.04-0.7 0.04-3.53 0.47-6.56 1.22-9.09 2.27-0.3 0-0.73-0.36-1.28-1.07-0.55-1.05-0.83-1.67-0.83-1.86 0-0.36 0.32-0.59 0.95-0.7 1.77-0.06 4.02-0.43 6.78-1.12 1.4-0.25 2.93-0.52 4.58-0.82 0.25-2.01 0.48-4.29 0.7-6.82 0-0.33-0.07-0.78-0.2-1.36-0.28-0.41-0.42-0.72-0.42-0.91 0-0.33 0.44-0.5 1.32-0.5 0.83 0 1.71 0.2 2.65 0.58 0.66 0.17 0.99 0.35 0.99 0.54-0.06 0.16-0.14 0.37-0.25 0.62-0.36 0.33-0.59 1.29-0.7 2.89-0.06 1.24-0.18 2.71-0.37 4.42 1.43-0.14 2.67-0.4 3.71-0.79 0.88-0.33 1.56-0.49 2.03-0.49 0.63 0 1.35 1.36 2.14 4.09-0.05 0.35-0.37 0.53-0.95 0.53l-2.84-0.16m-1.29 35.84c0.2 0 0.36 0.55 0.5 1.66 0 0.82-0.23 1.32-0.7 1.48-2.59 1.3-4.56 2.22-5.91 2.77-0.13 1.21-0.27 2.34-0.41 3.39 3.08-0.64 5.74-1.37 7.97-2.19 0.41 0.05 1.14 1.41 2.19 4.08-0.08 0.58-0.41 0.87-0.99 0.87-3.55 0.25-6.58 0.53-9.09 0.83 0.77 1.18 2.59 3.03 5.45 5.53 3.8 3.17 6.72 5.26 8.76 6.28 1.49 0.55 2.75 1.24 3.8 2.06 0.88 0.55 1.32 0.99 1.32 1.32-0.08 0.34-0.47 0.5-1.16 0.5-3.41 0-6.32-0.21-8.71-0.62-1.35-0.36-2.08-0.92-2.19-1.69 0-1.16-0.25-2-0.74-2.52-1.87-2.48-4.5-4.81-7.89-6.98-0.17-0.08-0.32-0.17-0.45-0.25-0.64 1.63-1.38 2.92-2.23 3.88-0.89 1.11-1.45 2.3-1.7 3.6-1.9 1.37-3.81 2.42-5.74 3.14-1.43 0.3-2.68 0.45-3.76 0.45-1.21 0-1.81-0.18-1.81-0.54 0-0.05 0.45-0.31 1.36-0.78 3.52-1.76 6.33-3.76 8.42-5.99 1.49-1.68 2.59-3.92 3.31-6.73-0.88 0.16-1.65 0.34-2.31 0.54-1.96 0.49-3.5 0.74-4.63 0.74-0.47 0-1.25-1.03-2.35-3.1 0-0.41 0.23-0.65 0.7-0.7 3.41-0.3 6.51-0.67 9.29-1.12 0.19-1.07 0.34-2.24 0.45-3.51-0.05-0.02-0.09-0.04-0.12-0.04-0.69-0.08-1.16-0.12-1.4-0.12-0.39 0.08-1.02 0.22-1.9 0.41-0.8 0.36-1.43 0.57-1.9 0.62-0.28 0-0.48-0.41-0.62-1.24-0.06-0.71-0.19-1.35-0.42-1.9-0.3-0.49-0.45-0.95-0.45-1.36 0.03-0.33 0.21-0.55 0.54-0.66l4.75 0.16c0.57 0 1.17-0.02 1.77-0.08 0.03-1.13 0.04-2.32 0.04-3.59l-0.49-6.4c0.22-0.55 0.67-0.83 1.36-0.83 2.42 0.14 3.63 0.48 3.63 1.04-0.52 1.89-0.92 4.5-1.19 7.8-0.03 0.47-0.06 0.94-0.09 1.4 0.97-0.24 1.97-0.55 3.02-0.9 1.49-0.47 2.39-0.71 2.72-0.71" transform="scale(.80681 1.2395)"/>
    <path id="text3724" d="m-938.14-300.26c-0.58 0-1.51 0.06-2.81 0.17-0.24 0.38-0.52 0.81-0.82 1.28-0.44 0.69-0.73 1.03-0.87 1.03-0.22 0-0.37-0.22-0.45-0.66 0.13-0.55 0.26-1.06 0.37-1.53-0.58 0.06-1.21 0.13-1.9 0.21-0.41 0.05-0.83 0.11-1.24 0.16 0.11 0.5 0.26 1.05 0.45 1.66 0 0.13-0.33 0.23-0.99 0.29-0.35 0-0.78-0.53-1.28-1.57-1.29 0.27-2.47 0.64-3.55 1.11-0.22 0-0.51-0.27-0.87-0.82-0.41-0.75-0.62-1.19-0.62-1.33 0-0.27 0.24-0.45 0.71-0.53 0.99-0.03 2.21-0.17 3.67-0.42-0.36-1.35-0.53-2.68-0.53-4 0-0.33 0.22-0.5 0.66-0.5 0.19 0 0.66 0.11 1.4 0.33 0.55 0.22 0.84 0.43 0.87 0.62-0.22 1.08-0.33 1.87-0.33 2.4 0 0.25 0.02 0.52 0.08 0.82 1.27-0.16 2.63-0.35 4.09-0.57 0.52-1.71 1.06-3.29 1.61-4.75 0.11-0.58 0.34-0.87 0.7-0.87 1.62 0.66 2.44 1.21 2.44 1.65 0 0.08-0.1 0.19-0.29 0.33-0.3 0.3-0.87 1.19-1.7 2.64-0.05 0.2-0.16 0.43-0.33 0.71 0.44-0.06 0.84-0.14 1.2-0.25 0.64-0.19 1.12-0.29 1.45-0.29 0.36 0 0.75 0.77 1.19 2.31-0.05 0.36-0.27 0.54-0.66 0.54l-1.65-0.17m-14.04 4.42h0.62c1.71-0.52 2.97-0.82 3.8-0.91 0.66-0.13 1.01-0.2 1.03-0.2 0.31 0 0.66 0.19 1.08 0.58 0.38 0.38 0.57 0.72 0.57 1.03 0 0.11-0.08 0.25-0.24 0.41-0.22 0.22-0.58 1.12-1.08 2.69-0.11 0.44-0.22 0.68-0.33 0.74-0.19 0-0.42-0.06-0.7-0.17-0.22 0.06-0.41 0.1-0.58 0.13 0.17 0.08 0.37 0.19 0.62 0.33 0.44 0.3 0.66 0.48 0.66 0.53 0 0.11-0.12 0.27-0.37 0.46l-1.57 1.57c0.22 0.03 0.37 0.08 0.46 0.16 0.08-0.24 0.29-0.42 0.62-0.53 1.15-0.17 2.21-0.32 3.18-0.46-0.11-0.05-0.22-0.12-0.34-0.2-0.33-0.25-0.49-0.54-0.49-0.87 0-0.28 0.21-0.73 0.62-1.36 0.25-0.42 0.47-0.67 0.66-0.75-0.11-0.3-0.25-0.69-0.41-1.15-0.36-1.24-0.54-2.07-0.54-2.48 0-0.44 0.11-0.66 0.33-0.66h0.62c1.76-0.58 3.08-0.9 3.96-0.95 0.64-0.14 0.97-0.21 1-0.21 0.38 0 0.79 0.19 1.23 0.58 0.39 0.41 0.58 0.77 0.58 1.07 0 0.09-0.08 0.22-0.25 0.42-0.24 0.27-0.67 1.34-1.28 3.22-0.13 0.46-0.28 0.73-0.45 0.78-0.17 0-0.37-0.11-0.62-0.33-1.71 0.3-2.67 0.54-2.89 0.7-0.19 0.11-0.33 0.17-0.41 0.17-0.09 0-0.15-0.03-0.21-0.08 0.14 0.38 0.34 0.7 0.62 0.95 0.28 0.22 0.44 0.5 0.5 0.86 2.53-0.38 3.88-0.59 4.04-0.62 0.33 0.06 0.5 0.4 0.5 1.04 0 0.33-0.22 0.53-0.66 0.62-0.91 0.08-1.93 0.27-3.06 0.57-0.19 0.06-0.38 0.1-0.58 0.13-0.02 0.36-0.05 0.84-0.08 1.44v0.09c2.01-0.36 3.07-0.56 3.18-0.58 0.36 0.05 0.54 0.45 0.54 1.19 0 0.34-0.29 0.54-0.87 0.62-0.77 0.09-1.65 0.25-2.64 0.5-0.06 0.03-0.13 0.04-0.21 0.04-0.05 0.52-0.08 0.98-0.08 1.36 2.26-0.35 3.47-0.53 3.63-0.53 0.33 0.05 0.5 0.44 0.5 1.15 0 0.33-0.29 0.55-0.87 0.66-0.8 0.06-1.71 0.2-2.73 0.42-0.19 0.02-0.37 0.05-0.53 0.08-0.03 0.66-0.04 1.18-0.04 1.57 0.13-0.03 0.24-0.04 0.33-0.04 0.99-0.06 1.86-0.17 2.6-0.33 0.44-0.14 0.8-0.21 1.07-0.21 0.28 0 0.59 0.66 0.95 1.98-0.03 0.22-0.18 0.33-0.45 0.33h-1.53c-0.66 0-2.17 0.09-4.54 0.25-1.82 0.17-3.36 0.47-4.63 0.91-0.03 1.6-0.04 2.7-0.04 3.3 0 0.33-0.45 0.5-1.36 0.5-0.69 0-1.08-0.11-1.16-0.33 0.28-2.26 0.5-6.71 0.66-13.34-0.52 0.58-0.95 1.1-1.28 1.57-0.27 0.25-0.44 0.54-0.49 0.87-0.06 0.19-0.36 0.41-0.91 0.66-0.75 0.41-1.65 0.62-2.73 0.62-0.47 0-0.7-0.1-0.7-0.29 1.51-0.88 2.86-2.03 4.05-3.43 1.32-1.43 2.34-2.82 3.05-4.17 0-0.03 0.02-0.04 0.04-0.04-0.27 0.08-0.44 0.15-0.49 0.2-0.17 0.11-0.28 0.17-0.33 0.17-0.47-0.03-1.03-0.72-1.69-2.07-0.53-1.1-0.79-1.84-0.79-2.23 0-0.46 0.11-0.7 0.33-0.7m3.84 16.69c0.8-0.06 1.75-0.21 2.85-0.46 0.3-0.03 0.61-0.07 0.91-0.12 0.03-0.44 0.04-0.95 0.04-1.53-0.88 0.11-1.77 0.28-2.68 0.5-0.31 0-0.48-0.39-0.54-1.16 0-0.3 0.23-0.52 0.7-0.66 0.91-0.14 1.76-0.28 2.56-0.41v-1.33c-0.88 0.11-1.79 0.31-2.72 0.58-0.31 0-0.48-0.4-0.54-1.2 0-0.3 0.23-0.5 0.7-0.61 0.94-0.17 1.81-0.34 2.6-0.5v-1.61c-1.01 0.11-2.06 0.3-3.13 0.58-0.25 0-0.43-0.17-0.54-0.5-0.03 0.5-0.06 1.12-0.08 1.86-0.03 2.59-0.07 4.78-0.13 6.57m-1.24-13.34c0.2 0 0.69-0.17 1.49-0.5 0.14-0.03 0.25-0.15 0.33-0.37 0.11-0.44 0.17-0.87 0.17-1.28 0-0.58-0.11-0.87-0.33-0.87-0.31 0-0.73 0.13-1.29 0.37-0.66 0.28-0.99 0.55-0.99 0.83 0.03 1.21 0.24 1.82 0.62 1.82m6.94-1.04c0.25 0 0.91-0.11 1.98-0.33 0.17-0.02 0.32-0.16 0.46-0.41 0.16-0.49 0.25-1.02 0.25-1.57 0-0.52-0.18-0.78-0.54-0.78-0.3 0-0.72 0.09-1.24 0.29-0.72 0.3-1.07 0.57-1.07 0.82 0.02 1.32 0.08 1.98 0.16 1.98m7.6-6.07c0.3 0 0.58 0.03 0.83 0.09 0.24-0.11 0.59-0.2 1.03-0.25 2.61-0.8 4.65-1.2 6.11-1.2 0.61 0 1.43 0.22 2.48 0.66 0.77 0.36 1.15 0.69 1.15 0.99 0 0.31-0.11 0.76-0.33 1.37-0.24 0.99-0.68 5.27-1.32 12.84 0 0.11-0.4 0.16-1.2 0.16-0.85 0-1.28-0.11-1.28-0.33 0.03-0.35 0.05-0.71 0.05-1.07-1.24 0.11-2.55 0.3-3.93 0.58 0.36 0.19 0.55 0.41 0.58 0.66-0.05 0.41-1.06 2.22-3.01 5.41-0.47 0.83-0.89 1.95-1.24 3.39-0.36 0.82-1.3 1.43-2.81 1.81-1.1 0.2-2.07 0.29-2.89 0.29-0.41 0-0.62-0.11-0.62-0.33 2.81-1.76 4.87-3.87 6.19-6.32 0.94-1.68 1.49-3.11 1.65-4.29-0.11 0.05-0.22 0.11-0.33 0.16-0.35 0.28-0.66 0.42-0.9 0.42-0.2 0-0.43-0.18-0.71-0.54-0.19-0.25-0.29-0.57-0.29-0.95 0-1.35 0.02-3.18 0.05-5.49 0.08-1.9 0.12-3.94 0.12-6.11 0-0.23-0.03-0.5-0.08-0.83-0.06-0.28-0.09-0.44-0.09-0.5 0-0.41 0.27-0.62 0.79-0.62m7.6 11.07c0.14-3.16 0.2-6.1 0.2-8.79-0.05-1.22-0.45-1.82-1.19-1.82-1.24 0-2.78 0.51-4.63 1.53-0.05 0.55-0.14 1.19-0.25 1.94v0.04c1-0.17 2.58-0.44 4.75-0.83 0.2 0 0.29 0.37 0.29 1.12 0 0.22-0.2 0.4-0.62 0.53-1.07 0.45-1.98 0.73-2.72 0.87-0.5 0.11-1.12 0.32-1.86 0.62-0.03 0.66-0.06 1.27-0.08 1.82 0.96-0.19 2.63-0.58 4.99-1.16 0.2 0 0.29 0.44 0.29 1.32 0 0.17-0.2 0.33-0.62 0.5-1.07 0.49-1.98 0.83-2.72 0.99-0.55 0.11-1.24 0.36-2.07 0.74-0.03 0.31-0.04 0.54-0.04 0.71 0 0.57 0.11 0.86 0.33 0.86 0.28 0 0.87-0.09 1.78-0.29 2.12-0.44 3.51-0.67 4.17-0.7m-1.61 3.26c0.8 0 1.29 0.17 1.48 0.5 0 0.25-0.22 0.99-0.66 2.23-0.22 1.13-0.33 2.04-0.33 2.73 0 1.1 0.17 1.89 0.5 2.39 0.52 0.52 1.27 0.78 2.23 0.78 1.84 0 3.11-0.31 3.8-0.94 0.47-0.53 0.7-1.41 0.7-2.65l-0.29-4c0-0.22 0.06-0.33 0.17-0.33 0.3 0 0.74 0.75 1.32 2.27 0.74 2.17 1.14 3.91 1.2 5.2 0.08 0.66 0.12 1.17 0.12 1.53 0.11 0.25 0.16 0.44 0.16 0.58 0 0.33-0.22 0.49-0.66 0.49-0.96 0.17-2.12 0.36-3.47 0.58-0.88 0.17-1.78 0.25-2.72 0.25-1.46 0-2.73-0.55-3.8-1.65-0.94-1.02-1.4-2.52-1.4-4.5 0-1.57 0.15-3.1 0.45-4.59 0.19-0.58 0.59-0.87 1.2-0.87m-12.89 29.61c0.28 0.06 0.44 0.44 0.5 1.16-0.06 0.72-0.4 1.32-1.03 1.82-1.1 0.52-2.16 0.95-3.18 1.28 0 0.44-0.02 0.86-0.04 1.28 1.21 0.19 2.62 0.71 4.25 1.57 0.41 0.27 0.62 0.66 0.62 1.15-0.19 1.85-0.57 2.77-1.12 2.77-0.22-0.06-0.58-0.34-1.07-0.87-0.61-0.77-1.51-1.59-2.73-2.48v0.95c0 7.69 0.17 12.85 0.5 15.49 0 0.66-0.29 0.99-0.87 0.99-0.08 0-0.52-0.19-1.32-0.58-0.74-0.27-1.11-0.68-1.11-1.24 0-0.16 0.12-0.78 0.37-1.85 0.02-1.22 0.05-5.08 0.08-11.61l-5.33 5.66c-1.15 1.24-1.95 1.86-2.39 1.86-0.2 0-0.51-0.11-0.95-0.33-0.25-0.17-0.37-0.35-0.37-0.54 0-0.3 0.22-0.61 0.66-0.91 1.43-1.1 2.93-2.74 4.5-4.91 1.37-1.87 2.48-3.73 3.3-5.58-1.35 0.33-2.86 0.9-4.54 1.7-0.39 0-0.72-0.68-0.99-2.03-0.22-0.96-0.33-1.55-0.33-1.77 0-0.47 0.34-0.71 1.03-0.71 1.4-0.05 3.21-0.3 5.41-0.74v-7.47l-0.29-2.81c0.06-0.5 0.32-0.84 0.79-1.03 0.41 0.05 1.12 0.35 2.14 0.9 0.88 0.53 1.32 0.95 1.32 1.28 0 0.17-0.11 0.39-0.33 0.67-0.24 0.3-0.48 0.93-0.7 1.9-0.14 1.26-0.26 3.27-0.37 6.02 0.69-0.19 1.4-0.38 2.15-0.57 0.71-0.25 1.2-0.39 1.44-0.42m17.68-1.98c0.33 0 0.49 0.61 0.49 1.82 0 0.22-0.34 0.43-1.03 0.62-0.85 0.22-1.68 0.42-2.48 0.62-0.33 5.42-0.52 9.14-0.57 11.15 1.92-0.17 3.74-0.32 5.45-0.46 0.52-0.13 1.11-0.2 1.77-0.2 0.17 0.49 0.37 0.96 0.62 1.4 0.39 0.74 0.61 1.42 0.66 2.02-0.08 0.42-0.23 0.65-0.45 0.71-0.14 0-0.64-0.16-1.49-0.46-0.93-0.38-1.76-0.58-2.48-0.58-2.75 0-6.45 0.2-11.11 0.58-4.1 0.33-7.18 0.75-9.25 1.24-0.35 0-0.73-0.87-1.11-2.6l0.66-0.33h1.16c1.92-0.17 3.78-0.33 5.57-0.5-0.03-4.21-0.11-7.62-0.25-10.24-0.49 0.11-1 0.22-1.52 0.33-0.31 0-0.61-0.31-0.91-0.95-0.2-0.47-0.29-0.93-0.29-1.4 0-0.33 0.23-0.5 0.7-0.5 0.39-0.02 1-0.08 1.86-0.16-0.08-1.41-0.22-2.45-0.41-3.14-0.17-0.77-0.28-1.43-0.33-1.98 0-0.31 0.66-0.46 1.98-0.46 0.99 0 1.48 0.26 1.48 0.79 0 1.4 0.02 2.87 0.05 4.42 1.45-0.22 3.22-0.5 5.28-0.83 0.06-2.2 0.1-4.61 0.13-7.23 0-0.41 0.39-0.62 1.19-0.62 1.74 0 2.6 0.32 2.6 0.95-0.33 0.88-0.53 2.11-0.62 3.68-0.08 0.93-0.15 1.84-0.2 2.72 0.91-0.13 1.86-0.27 2.85-0.41m-11.11 14.79c1.65-0.11 3.22-0.24 4.71-0.38 0.13-2.42 0.27-6.03 0.41-10.82-0.94 0.14-1.78 0.25-2.52 0.33-0.83 0.06-1.73 0.17-2.72 0.33 0 0.69 0.01 1.37 0.04 2.03 0.88-0.11 2.17-0.29 3.88-0.54 0.25 0 0.37 0.57 0.37 1.69 0 0.17-0.29 0.32-0.87 0.46-0.88 0.3-1.61 0.49-2.19 0.58-0.33 0.05-0.73 0.13-1.19 0.24 0 0.56 0.01 1.12 0.04 1.7 0.85-0.14 2.13-0.37 3.84-0.7 0.25 0 0.37 0.55 0.37 1.65 0 0.19-0.29 0.37-0.87 0.53-0.85 0.28-1.55 0.46-2.1 0.54-0.36 0.03-0.77 0.11-1.24 0.25 0.03 0.72 0.04 1.42 0.04 2.11m-0.46 3.38c0.42 0 0.62 0.1 0.62 0.29-0.93 1.74-1.56 2.93-1.9 3.59-0.22 0.66-0.46 1.26-0.74 1.78-0.25 0.49-0.41 0.99-0.49 1.49-0.09 0.41-0.25 0.62-0.5 0.62-0.44 0-0.99-0.45-1.65-1.33-0.85-0.93-1.28-1.59-1.28-1.98 0-0.19 0.22-0.37 0.66-0.54 0.49-0.27 0.96-0.61 1.4-1.03 0.64-0.66 1.93-1.62 3.88-2.89m5.58-0.16c0.28 0 1.56 0.51 3.84 1.52 0.8 0.42 1.42 0.68 1.86 0.79 0.3 0.27 0.45 1.27 0.45 2.97 0 0.47-0.18 1.06-0.53 1.78-0.28 0.58-0.54 0.87-0.79 0.87-0.22 0-0.44-0.22-0.66-0.67-1.18-2.23-2.49-4.18-3.92-5.86-0.44-0.38-0.68-0.7-0.7-0.95 0-0.3 0.15-0.45 0.45-0.45m0.5 24.44c-1.24 0-2.68 0.06-4.3 0.17-0.08 0.14-0.22 0.33-0.41 0.58-0.61 0.71-1.01 1.8-1.2 3.26-0.8 8.12-1.2 13.54-1.2 16.27 0 0.74 0.04 1.4 0.13 1.98 0.16 0.77 0.24 1.45 0.24 2.03-0.08 0.44-0.57 0.66-1.48 0.66-1.49 0-2.33-0.33-2.52-0.99 0-0.33 0.04-0.61 0.12-0.83 0.03-0.3 0.04-0.7 0.04-1.2v-15.24l-8.92 8.63c-1.87 1.79-3.19 2.69-3.96 2.69-0.33 0-0.87-0.22-1.61-0.66-0.44-0.3-0.66-0.65-0.66-1.03 0-0.42 0.4-0.84 1.2-1.28 2.47-1.52 5.07-3.75 7.8-6.69 2.34-2.54 4.21-5.06 5.62-7.56-3.91 0.49-6.87 1.1-8.88 1.82-0.5 0-1.05-1.33-1.65-3.97l1.03-0.16h1.65c8.59-1.13 15.79-2.07 21.6-2.81 0.55-0.22 1.17-0.33 1.86-0.33 0.24 0.71 0.56 1.4 0.95 2.06 0.57 1.02 0.92 1.98 1.03 2.89-0.11 0.61-0.33 0.95-0.66 1.04-0.19 0-0.9-0.22-2.11-0.67-1.37-0.44-2.61-0.66-3.71-0.66m-4.75 7.11c1.95 0.77 3.75 1.4 5.41 1.9 1.7 0.6 3.69 1.57 5.94 2.89 0.22 0.44 0.33 0.86 0.33 1.28-0.41 3.11-1.07 4.66-1.98 4.66-0.3 0-0.56-0.27-0.78-0.82-1.21-1.87-4.3-5.08-9.25-9.62 0-0.2 0.11-0.29 0.33-0.29m-12.93 28.37c0.36 0.16 0.69 0.62 0.99 1.36 0.41 0.72 0.98 1.4 1.69 2.06 0.72 0.83 1.11 1.67 1.16 2.52-0.08 0.69-0.47 1.04-1.16 1.04-1.07-0.39-2.05-0.66-2.93-0.83-0.91-0.16-1.36-0.89-1.36-2.19 0-1.24 0.21-2.27 0.62-3.1 0.33-0.49 0.66-0.78 0.99-0.86m6.15 7.97c0.31 0 0.46 0.55 0.46 1.65 0 0.25-0.26 0.47-0.79 0.66-2.78 0.85-5.09 1.39-6.93 1.61-1.66 0.19-3.65 0.65-5.99 1.36-0.36 0-0.69-0.35-0.99-1.07-0.2-0.55-0.29-1.09-0.29-1.61 0-0.3 0.2-0.46 0.62-0.46 1.4-0.11 6.04-0.82 13.91-2.14m-1.98 4.75c0.41 0.08 0.62 0.57 0.62 1.48 0 0.47-0.32 0.76-0.95 0.87-0.8 0.08-1.69 0.28-2.68 0.58-0.86 0.22-1.63 0.37-2.32 0.45-0.99 0.14-2.02 0.4-3.09 0.79-0.39 0-0.61-0.5-0.66-1.49 0-0.49 0.26-0.84 0.78-1.03 5.31-1.05 8.08-1.6 8.3-1.65m-0.16 4.33c0.41 0.06 0.62 0.48 0.62 1.28 0 0.44-0.32 0.73-0.95 0.87-0.77 0.05-1.63 0.21-2.56 0.45-0.83 0.2-1.57 0.32-2.23 0.38-0.97 0.13-1.97 0.35-3.02 0.66-0.36 0-0.56-0.44-0.62-1.32 0-0.39 0.21-0.67 0.62-0.83 5.2-0.96 7.92-1.46 8.14-1.49m-9.3 5.62l1.04 0.16c2.78-0.74 4.87-1.15 6.27-1.23 1.05-0.2 1.6-0.29 1.66-0.29 0.49 0 1.08 0.3 1.77 0.9 0.58 0.53 0.87 1 0.87 1.41 0 0.16-0.12 0.37-0.37 0.62-0.33 0.38-0.9 1.84-1.7 4.38-0.19 0.68-0.38 1.07-0.57 1.15-0.36 0-0.75-0.16-1.16-0.49-2.53 0.52-3.99 0.92-4.38 1.19-0.27 0.2-0.48 0.29-0.62 0.29-0.58-0.05-1.32-1.22-2.23-3.51-0.71-1.84-1.07-3.11-1.07-3.8 0-0.52 0.16-0.78 0.49-0.78m3.47 5.12c0.44 0 1.55-0.23 3.31-0.7 0.16-0.03 0.31-0.22 0.45-0.58 0.17-0.63 0.25-1.31 0.25-2.02 0-0.8-0.18-1.2-0.54-1.2-0.58 0-1.36 0.15-2.35 0.45-1.27 0.39-1.9 0.75-1.9 1.08 0.05 1.98 0.32 2.97 0.78 2.97m23.5-25.81c0.28 0.08 0.44 0.54 0.5 1.36-0.06 0.72-0.4 1.32-1.04 1.82-1.48 0.36-2.87 0.63-4.17 0.83-0.11 0.77-0.34 2-0.7 3.71 2.53-0.41 3.95-0.62 4.25-0.62 0.39 0 1.08 0.21 2.07 0.62 0.94 0.39 1.4 0.79 1.4 1.2 0 0.19-0.15 0.51-0.45 0.95-0.44 0.99-1.05 2.63-1.82 4.91 1.24-0.13 2.34-0.31 3.31-0.53 0.88-0.22 1.58-0.33 2.1-0.33 0.44 0 0.99 1.04 1.65 3.13-0.05 0.31-0.34 0.46-0.86 0.46l-2.11-0.12c-1.46 0-4.62 0.15-9.5 0.45-3.74 0.36-6.98 0.91-9.7 1.65-0.25 0-0.57-0.29-0.95-0.87-0.47-0.88-0.7-1.4-0.7-1.57 0-0.24 0.23-0.41 0.7-0.49 1.35-0.03 3-0.19 4.95-0.5 0.06-0.08 0.11-0.18 0.17-0.29 0.44-0.9 0.92-2.6 1.44-5.07-0.08 0.02-0.17 0.05-0.28 0.08-1.99 0.77-3.21 1.15-3.68 1.15-0.3 0-0.45-0.4-0.45-1.19 0.11-1.19 0.42-1.85 0.95-1.99 0.82 0 2.16-0.15 4-0.45 0.33-1.73 0.5-3 0.5-3.8-1.27 0.19-2.65 0.45-4.13 0.79-0.33 0-0.59-0.53-0.79-1.57-0.14-0.75-0.2-1.2-0.2-1.37 0-0.46 0.27-0.7 0.82-0.7 2.59-0.05 6.29-0.49 11.11-1.32 0.85-0.17 1.39-0.28 1.61-0.33m-7.39 15.53c1.27-0.14 2.57-0.28 3.92-0.42 0.64-2.28 0.95-3.8 0.95-4.54s-0.26-1.11-0.78-1.11c-0.88 0.13-1.75 0.29-2.6 0.45-0.47 2.15-0.97 4.02-1.49 5.62m3.92 4.13c1.63 0 3.07 0.4 4.34 1.19 0.96 0.61 1.44 1.11 1.44 1.49 0 0.55-0.19 1.05-0.57 1.49-1.27 1.37-2.14 3.3-2.61 5.78-0.13 0.41-0.34 0.62-0.62 0.62-0.19 0-0.67-0.15-1.44-0.46-0.8-0.22-1.64-0.33-2.52-0.33-0.8 0-1.93 0.14-3.39 0.42-0.71 0.24-1.29 0.37-1.73 0.37-0.33 0-0.57-0.21-0.7-0.62-0.36-1.07-0.79-2.08-1.28-3.02-0.64-1.12-1.08-2.13-1.32-3.01-0.22-0.61-0.33-1.07-0.33-1.4 0-0.45 0.49-0.79 1.48-1.04 4.1-0.99 7.19-1.48 9.25-1.48m-5.45 7.47c1.49 0 3.02-0.27 4.59-0.82 0.55-0.17 0.94-0.6 1.19-1.29 0.31-0.79 0.46-1.52 0.46-2.18 0-0.8-0.44-1.2-1.32-1.2-1.46 0-3.17 0.33-5.13 0.99-0.52 0.25-0.78 0.59-0.78 1.03s0.11 1.31 0.33 2.6c0.11 0.58 0.33 0.87 0.66 0.87m4.13 18.17c-1.1 0-3.3 0.14-6.61 0.41-0.38 1.13-0.86 2.06-1.44 2.77 1.87-0.27 3.44-0.41 4.71-0.41 0.68 0 1.65 0.23 2.89 0.7 0.82 0.39 1.24 0.77 1.24 1.16 0 0.3-0.1 0.75-0.29 1.36-0.2 0.99-0.54 5.01-1.04 12.06 2.4-0.25 4.66-0.48 6.78-0.7 0.68-0.22 1.47-0.33 2.35-0.33 0.19 0.57 0.44 1.14 0.74 1.69 0.53 0.85 0.83 1.66 0.91 2.44-0.08 0.46-0.25 0.72-0.49 0.78-0.2 0-0.79-0.17-1.78-0.5-1.1-0.41-2.11-0.62-3.01-0.62-3.56 0-8.25 0.25-14.09 0.75-0.05 0.25-0.2 0.59-0.45 1.03-0.5 1.05-1.2 2.05-2.11 3.01-0.44 0.5-0.74 1.13-0.9 1.9-0.22 0.72-0.87 1.17-1.95 1.37-1.92 0.58-3.63 0.86-5.12 0.86-1.1 0-1.65-0.17-1.65-0.53 0-0.17 0.36-0.4 1.08-0.7 2.86-1.3 4.81-2.51 5.86-3.64 0.8-0.91 1.36-1.9 1.69-2.97-4.29 0.47-7.62 1.03-9.99 1.69-0.39 0-0.83-1.03-1.32-3.1l0.86-0.2h1.33c2.45-0.25 4.81-0.5 7.1-0.75v-0.2c0-6.14-0.34-10.88-1.03-14.21 0.08-0.88 0.3-1.32 0.66-1.32 0.25 0 0.69 0.15 1.32 0.45 0.3-0.13 0.7-0.24 1.2-0.33 0.66-0.11 1.3-0.22 1.94-0.33 0.08-0.24 0.16-0.55 0.25-0.9 0.22-0.53 0.45-1.17 0.7-1.95-2.7 0.42-5.04 0.98-7.02 1.7-0.33 0-0.73-0.33-1.2-0.99-0.55-1.02-0.83-1.61-0.83-1.78 0-0.36 0.29-0.59 0.87-0.7 1.57-0.03 3.62-0.28 6.15-0.74 0.86-0.09 1.74-0.18 2.65-0.29 0.24-1.24 0.49-2.66 0.74-4.26 0.14-0.52 0.43-0.78 0.87-0.78 0.41 0 1.07 0.18 1.98 0.54 0.88 0.46 1.32 0.83 1.32 1.11 0 0.25-0.14 0.47-0.41 0.66-0.3 0.47-0.65 1.23-1.03 2.27 0.13-0.03 0.28-0.05 0.45-0.08 1.79-0.08 3.3-0.26 4.54-0.54 0.8-0.22 1.43-0.33 1.9-0.33 0.44 0 0.99 1.05 1.65 3.14-0.05 0.33-0.34 0.5-0.86 0.5l-2.11-0.17m-11.93 19.25c2.97-0.31 5.78-0.61 8.42-0.91-0.08-4.22-0.12-8.07-0.12-11.57-0.06-1.32-0.51-1.98-1.37-1.98-1.9 0-4.35 0.57-7.35 1.69 0 0.11 0.02 0.23 0.04 0.34 0 0.33 0.02 0.66 0.05 0.99 4.04-0.66 6.15-1.01 6.31-1.04 0.44 0.06 0.66 0.55 0.66 1.49 0 0.41-0.34 0.69-1.03 0.83-0.63 0.05-1.37 0.19-2.23 0.41-0.66 0.16-1.31 0.27-1.94 0.33-0.52 0.08-1.09 0.19-1.69 0.33 0.03 0.5 0.04 0.99 0.04 1.49 4.16-0.61 6.33-0.91 6.52-0.91 0.42 0.05 0.62 0.55 0.62 1.49 0 0.41-0.31 0.67-0.95 0.78-0.68 0.05-1.47 0.19-2.35 0.41-0.74 0.14-1.43 0.24-2.06 0.29-0.56 0.06-1.13 0.15-1.74 0.29v1.45c4.24-0.61 6.46-0.93 6.65-0.95 0.41 0.08 0.62 0.59 0.62 1.52 0 0.42-0.32 0.68-0.95 0.79-0.69 0.08-1.46 0.22-2.31 0.41-0.72 0.14-1.38 0.24-1.99 0.29-0.6 0.08-1.23 0.18-1.9 0.29 0.03 0.66 0.05 1.14 0.05 1.45m7.43 2.84c0.8 0.14 2.08 0.53 3.84 1.16 1.68 0.52 3.11 1.42 4.29 2.69 0.09 0.24 0.13 0.52 0.13 0.82-0.36 2.2-1.06 3.3-2.11 3.3-0.49 0-0.92-0.33-1.28-0.99-1.32-2.2-3-4.18-5.04-5.94-0.3-0.28-0.45-0.5-0.45-0.66 0-0.25 0.21-0.38 0.62-0.38m4.5 16.73c0.41 0 1.13 0.206 2.15 0.619 0.99 0.441 1.48 0.881 1.48 1.322 0 0.303-0.22 0.798-0.66 1.486-0.22 0.551-0.49 1.239-0.82 2.065 1.4-0.165 2.77-0.316 4.09-0.454 0.68-0.275 1.47-0.413 2.35-0.413 0.19 0.551 0.43 1.087 0.7 1.611 0.44 0.825 0.7 1.61 0.79 2.353-0.09 0.386-0.26 0.592-0.54 0.62-0.14 0-0.67-0.152-1.61-0.454-1.05-0.331-1.98-0.496-2.81-0.496-1.18 0-2.48 0.041-3.88 0.124-0.36 1.019-0.72 2.147-1.07 3.386 0.05-0.027 0.09-0.041 0.12-0.041 0.33 0 0.5 0.661 0.5 1.982 0 0.303-0.32 0.565-0.95 0.785-3.39 0.688-6.24 1.115-8.55 1.28-0.5 0.055-1.04 0.11-1.61 0.165-0.66 1.349-1.45 2.781-2.36 4.295 4.66-1.046 8.17-1.569 10.53-1.569 1.74 0 3.27 0.399 4.59 1.197 0.99 0.661 1.48 1.198 1.48 1.611 0 0.605-0.19 1.129-0.57 1.569-1.33 1.404-2.23 3.4-2.73 5.988-0.16 0.578-0.37 0.867-0.62 0.867-0.19 0-0.7-0.165-1.53-0.495-0.82-0.248-1.69-0.372-2.6-0.372-1.1 0-2.71 0.179-4.83 0.537-0.99 0.33-1.8 0.495-2.44 0.495-0.3 0-0.53-0.22-0.7-0.66-0.36-1.129-0.8-2.175-1.32-3.139-0.47-0.936-0.83-1.789-1.07-2.56-1.19 0.688-2.51 1.294-3.97 1.817-1.93 1.018-4.03 1.528-6.32 1.528-0.22 0-0.33-0.055-0.33-0.165 0-0.468 1.38-1.528 4.13-3.18 3.58-2.34 6.2-4.804 7.85-7.392-0.91 0.165-1.87 0.33-2.89 0.495-0.36 0-0.7-0.33-1.03-0.991-0.22-0.523-0.33-1.005-0.33-1.445 0-0.33 0.23-0.496 0.7-0.496 0.8-0.055 2.49-0.247 5.08-0.578 0.57-1.349 1-2.629 1.28-3.84-5.34 0.715-9.4 1.638-12.19 2.766-0.38 0-0.81-1.156-1.28-3.468l0.95-0.166h1.37c4.07-0.55 7.9-1.06 11.48-1.528 0.02-0.302 0.04-0.633 0.04-0.991-0.06-0.633-0.28-1.294-0.66-1.982-0.06-0.11-0.11-0.22-0.17-0.33-0.22 0.055-0.42 0.096-0.62 0.124-2.81 0.826-4.51 1.239-5.12 1.239-0.36 0-0.53-0.4-0.53-1.198 0.13-1.294 0.53-1.996 1.19-2.106 1.63 0 4.89-0.399 9.79-1.198 3.63-0.413 5.66-0.619 6.07-0.619m-8.96 12.967c1.57-0.22 3.37-0.454 5.41-0.702 0.41-1.377 0.78-2.588 1.11-3.634-1.7 0.137-3.49 0.316-5.36 0.537-0.25 1.128-0.64 2.395-1.16 3.799m2.35-9.911c0.55 0.22 0.83 0.454 0.83 0.702 0 0.22-0.22 0.647-0.66 1.28-0.25 0.358-0.5 0.922-0.74 1.693 1.87-0.248 3.66-0.495 5.36-0.743 0.2-0.936 0.29-1.68 0.29-2.23 0-0.881-0.31-1.322-0.95-1.322-1.4 0.193-2.78 0.399-4.13 0.62m-2.97 23.704c2.12 0 4.31-0.331 6.57-0.991 0.6-0.193 1.04-0.634 1.32-1.322 0.33-0.853 0.49-1.638 0.49-2.354 0-0.853-0.48-1.28-1.44-1.28-1.96 0-4.26 0.386-6.9 1.156-0.69 0.358-1.03 0.799-1.03 1.322 0 0.44 0.11 1.308 0.33 2.602 0.11 0.578 0.33 0.867 0.66 0.867m6.73 15.981c0.88 0 2.25 0.592 4.09 1.776 1.16 0.826 1.73 1.556 1.73 2.189 0 0.33-0.38 0.757-1.15 1.28-1.76 0.826-4.31 2.395-7.64 4.708 0.49 0.798 0.85 1.555 1.07 2.271 4.05-0.551 7.72-1.06 11.03-1.528 0.69-0.275 1.46-0.413 2.31-0.413 0.22 0.661 0.5 1.294 0.83 1.9 0.55 0.963 0.88 1.872 0.99 2.725-0.11 0.468-0.33 0.744-0.66 0.826-0.2 0-0.84-0.206-1.94-0.619-1.19-0.496-2.25-0.744-3.18-0.744-2.43 0-5.39 0.179-8.88 0.537 0.08 1.019 0.12 2.23 0.12 3.634 0 2.864-0.14 5.355-0.41 7.475-0.19 1.955-0.39 3.386-0.58 4.295-0.17 0.578-0.28 1.17-0.33 1.776-0.08 0.66-0.19 0.991-0.33 0.991-0.44 0-0.85-0.083-1.24-0.248-0.55-0.193-1.24-0.331-2.06-0.413-1.44-0.193-2.94-0.895-4.51-2.106-2.2-1.927-3.3-3.166-3.3-3.717 0-0.193 0.18-0.289 0.54-0.289 0.47 0 1.18 0.358 2.14 1.074 2.23 0.936 3.83 1.404 4.8 1.404 0.44 0 0.86-0.744 1.28-2.23 0.46-1.459 0.7-4.13 0.7-8.012 0-1.183-0.1-2.271-0.29-3.262-0.74 0.055-1.52 0.138-2.31 0.248-5.37 0.688-9.42 1.583-12.15 2.684-0.41 0-0.83-1.156-1.28-3.469l0.95-0.206h1.37c4.54-0.634 8.78-1.239 12.72-1.817 0 0-0.02-0.014-0.04-0.042-0.69-1.431-1.51-2.299-2.44-2.601-0.47-0.166-0.7-0.372-0.7-0.62 0-0.275 0.38-0.633 1.15-1.074 0.75-0.385 1.52-0.578 2.32-0.578 0.41 0 0.78 0.221 1.11 0.661 0.11 0.11 0.21 0.22 0.29 0.33 2.5-3.193 3.8-5.12 3.88-5.781 0-0.798-0.48-1.198-1.44-1.198-0.91 0.111-2.37 0.689-4.38 1.735-2.26 1.101-4.01 2.12-5.25 3.056-0.41 0.33-0.79 0.495-1.15 0.495-0.42 0-0.94-0.729-1.57-2.188-0.69-1.019-1.03-1.652-1.03-1.9s0.33-0.413 0.99-0.496c1.29-0.11 3.51-0.564 6.65-1.362 3.27-0.771 5.67-1.157 7.18-1.157" transform="scale(-.80681 -1.2395)"/>
    <path id="text3728" d="m7.6613-298.42c0.468 0 0.702 0.77 0.7021 2.31-0.0001 0.39-0.4405 0.73-1.3215 1.03-1.0462 0.33-1.996 0.61-2.8495 0.83-0.055 1.26-0.0963 2.27-0.1238 3.01 1.5967-0.36 3.3036-0.77 5.1207-1.24 0.4129 0 0.6194 0.68 0.6194 2.03 0 0.3-0.3166 0.58-0.9498 0.82-1.7069 0.55-3.2624 0.99-4.6665 1.32 0 0.94-0.0137 1.9-0.0412 2.9 0.9085-0.14 2.2575-0.39 4.047-0.75 0.4405 0 0.6607 0.65 0.6607 1.94 0 0.31-0.3441 0.6-1.0324 0.87-0.881 0.36-1.6519 0.59-2.3126 0.7-0.4405 0.09-0.9636 0.24-1.5692 0.46-0.0551 0.74-0.1102 1.5-0.1652 2.27 0.7433 0.22 1.7757 0.44 3.0972 0.66 1.9547 0.44 4.6663 1.51 8.1353 3.22 1.679 0.88 3.317 1.43 4.914 1.65 0.854 0.14 2.547 0.55 5.08 1.24 1.541 0.41 2.863 0.96 3.964 1.65 0 0.8-2.189 1.2-6.566 1.2-2.753-0.36-4.9-0.55-6.442-0.58-0.936 0-1.473-0.29-1.611-0.87-0.082-1.12-0.743-1.95-1.982-2.47-1.211-0.58-2.519-1.06-3.923-1.45-1.2389-0.25-4.0609-1.13-8.4658-2.64-1.1838-0.39-2.0923-0.58-2.7255-0.58-0.0826-0.03-0.1652-0.08-0.2478-0.16-0.0275 0.05-0.0551 0.11-0.0826 0.16-0.3854 0.69-0.647 1.56-0.7846 2.6-0.1652 0.94-0.7158 1.57-1.6519 1.9-1.6243 0.72-3.0696 1.08-4.3361 1.08-0.8537 0-1.2797-0.1-1.2797-0.29 0-0.22 0.302-0.55 0.908-0.99 2.4228-1.74 4.0609-3.35 4.9143-4.84 0.8535-1.57 1.4178-3.33 1.6932-5.28 0.0275-0.55 0.1514-0.83 0.3716-0.83 1.5417 0 2.3126 0.29 2.3126 0.87 0.00001 0.33-0.1376 0.91-0.4129 1.73-0.0276 0.06-0.0413 0.13-0.0413 0.21 0.2753 0.14 0.5781 0.33 0.90848 0.58 0.35789 0.38 0.86721 0.76 1.5279 1.11v-6.6c-0.35788 0.08-0.70201 0.13-1.0324 0.16-2.0373 0.3-4.5426 0.9-7.5159 1.78-0.3854 0-0.7295-0.33-1.0324-0.99-0.1927-0.53-0.2891-1.01-0.2891-1.45 0-0.33 0.2065-0.5 0.6195-0.5 1.2113-0.11 4.3223-0.74 9.3329-1.9 0-0.82 0.0138-1.84 0.0413-3.05-1.0186 0.19-2.2024 0.51-3.5514 0.95-0.4406 0-0.826-0.39-1.1563-1.16-0.2203-0.63-0.3304-1.22-0.3304-1.77 0-0.47 0.2615-0.71 0.7846-0.71 0.6332-0.05 2.0648-0.3 4.2948-0.74 0-2.17 0.0138-4.72 0.0413-7.64 0-0.47 0.3717-0.7 1.115-0.7 1.7895 0 2.6843 0.34 2.6843 1.03-0.1928 0.58-0.3304 1.41-0.413 2.48-0.1101 1.51-0.1927 2.89-0.2478 4.13 0.9911-0.19 2.0786-0.43 3.2624-0.7m9.7877 1.36c0.605 0 1.541 0.33 2.808 0.99 1.431 0.72 2.147 1.25 2.147 1.61 0 0.11-0.22 0.32-0.661 0.62-0.495 0.5-1.252 1.6-2.271 3.3 0.193 0.34 0.289 0.79 0.289 1.37 0 0.52-0.399 0.86-1.197 1.03-0.606 0.06-1.322 0.19-2.148 0.41-0.661 0.17-1.294 0.28-1.899 0.33-0.579 0.09-1.184 0.21-1.818 0.38-0.137 1.26-0.206 2.31-0.206 3.13 0 0.83 0.22 1.45 0.661 1.86 0.495 0.44 1.803 0.66 3.923 0.66 1.817 0 2.932-0.2 3.345-0.62 0.55-0.46 0.826-1.97 0.826-4.5 0-0.22 0.055-0.33 0.165-0.33 0.248 0 0.606 0.36 1.074 1.08 1.046 1.73 1.569 3.38 1.569 4.95 0 0.58 0.055 0.98 0.165 1.2 0.11 0.16 0.165 0.29 0.165 0.37 0 0.22-0.192 0.33-0.578 0.33-0.413 0-0.812 0.06-1.197 0.17-0.524 0.08-2.368 0.12-5.534 0.12-2.478 0-3.827-0.1-4.047-0.29-0.22-0.16-0.482-0.3-0.785-0.41-0.358-0.11-0.867-0.61-1.528-1.49-0.716-1.07-1.0735-2.11-1.0735-3.1s0.2753-3.45 0.8255-7.39c0.138-0.93 0.207-1.82 0.207-2.64 0-0.36-0.041-0.73-0.124-1.12-0.138-0.27-0.206-0.51-0.206-0.7 0-0.22 0.165-0.43 0.495-0.62 0.248-0.25 0.854-0.37 1.817-0.37 0.413 0 0.771 0.04 1.074 0.12 0.468-0.11 1.032-0.22 1.693-0.33 0.798-0.08 1.473-0.12 2.024-0.12m-3.635 3.14c-0.302 1.43-0.536 2.74-0.702 3.92 1.047-0.16 1.955-0.3 2.726-0.41 0.964-2.07 1.445-3.18 1.445-3.35 0-0.68-0.33-1.03-0.991-1.03-0.908 0.11-1.734 0.4-2.478 0.87m1.983 30.68c0.66 0 1.211 1.01 1.652 3.02 0 0.27-0.235 0.44-0.703 0.49-1.762 0-4.129 0.39-7.1025 1.16-0.7158 0.14-1.3903 0.58-2.0235 1.32 0.1101-0.03 0.234-0.04 0.3717-0.04 1.2113 0 2.1203 0.22 2.7253 0.66 0.386 0.3 0.578 0.81 0.578 1.53v2.1c1.928-0.35 4.089-0.8 6.484-1.32 0.413 0 0.619 0.84 0.619 2.52 0 0.3-0.371 0.58-1.115 0.83-2.23 0.66-4.226 1.15-5.988 1.48v4.05c3.992-0.5 7.599-0.96 10.82-1.4 0.661-0.25 1.418-0.38 2.271-0.38 0.248 0.69 0.537 1.34 0.868 1.95 0.55 0.96 0.867 1.87 0.949 2.72-0.11 0.47-0.344 0.73-0.702 0.79-0.165 0-0.784-0.2-1.858-0.58-1.211-0.5-2.299-0.75-3.262-0.75-2.451 0-5.479 0.21-9.086 0.62v9.46c0 1.68-0.082 3.1-0.247 4.25-0.221 1.02-0.565 1.53-1.033 1.53-0.2476 0-0.7982-0.22-1.6516-0.66-0.9086-0.55-1.7758-0.96-2.6017-1.24-0.7433-0.22-1.9685-1.04-3.6754-2.48-1.1287-0.79-1.6931-1.3-1.6931-1.52-0.00001-0.33 0.22023-0.5 0.6607-0.5 2.4778 0.88 4.3637 1.32 5.6576 1.32 0.8535 0 1.2802-0.78 1.2802-2.35v-7.43c-0.5782 0.05-1.1701 0.12-1.7757 0.2-5.2034 0.75-9.1127 1.68-11.728 2.81-0.5508 0-1.1014-1.34-1.652-4.01l1.115-0.33h1.4867c4.515-0.57 8.6997-1.11 12.554-1.61v-3.96c-1.7895 0.27-3.9232 0.77-6.4009 1.49-0.4405 0-0.82595-0.42-1.1563-1.24-0.22026-0.61-0.33039-1.2-0.33038-1.78-0.00001-0.41 0.26153-0.62 0.78463-0.62 1.0186-0.08 3.3862-0.49 7.103-1.24l-0.0001-0.74c0-1.05-0.2616-1.9-0.7846-2.56-0.2203-0.14-0.3717-0.26-0.4543-0.37-0.7433 0.6-1.762 0.96-3.0559 1.07-2.3126 0.44-3.9644 0.66-4.9556 0.66-0.523 0-0.7846-0.15-0.7846-0.45 2.643-1.98 5.2309-3.66 7.7637-5.04 2.1474-1.13 4.226-1.83 6.2356-2.11 1.349-0.11 2.629-0.55 3.841-1.32m-9.0855 41.67c0.3028 0 0.9223 0.32 1.8583 0.95 0.8259 0.63 1.2389 1.09 1.2389 1.36 0 0.19-0.2065 0.42-0.6194 0.66-1.3766 1.27-2.9734 3.2-4.7904 5.78-0.055 0.03-0.0826 0.07-0.0826 0.13 1.762-0.22 6.1397-1.1 13.133-2.64 0.44 0 0.66 0.71 0.66 2.14 0 0.33-0.399 0.62-1.197 0.87-2.616 0.88-4.804 1.45-6.566 1.69-1.5422 0.22-3.4143 0.71-5.6167 1.45-0.4405 0-0.8259-0.41-1.1563-1.24-0.1101-0.28-0.1927-0.55-0.2478-0.83-0.1927 0.44-0.3304 0.88-0.4129 1.33-0.2203 0.77-0.6746 1.41-1.3628 1.94-0.2203 0.19-0.4405 0.35-0.66075 0.49 0.22025 0.06 0.45425 0.11 0.70205 0.17 0.9911 0.19 1.4866 0.38 1.4867 0.57-0.0001 0.09-0.0276 0.29-0.0826 0.62-0.0551 0.39-0.0826 0.64-0.0826 0.75 0 0.36 0.0137 0.71 0.0413 1.07 0.523-0.08 1.0599-0.18 1.6105-0.29 0.3579-0.05 0.702-0.09 1.0324-0.12-0.1377-0.94-0.3028-1.61-0.4955-2.03-0.2203-0.44-0.3442-0.82-0.3717-1.15 0-0.33 0.6057-0.5 1.817-0.5 0.8535 0 1.2802 0.29 1.2802 0.87 0 0.8 0.0138 1.64 0.0413 2.52 0.9085-0.11 1.8446-0.23 2.8082-0.37l0.165-2.52c0-0.25-0.055-0.51-0.165-0.79 0-0.13 0.069-0.27 0.206-0.41 0.193-0.16 0.565-0.25 1.115-0.25 0.358 0 0.813 0.07 1.363 0.21 0.413 0.19 0.62 0.34 0.62 0.45 0 0.06-0.069 0.16-0.207 0.29-0.303 0.28-0.495 0.73-0.578 1.37-0.055 0.46-0.11 0.92-0.165 1.36 1.018-0.03 1.954-0.1 2.808-0.21 0.083-1.07 0.179-2.23 0.289-3.47 0-0.46 0.385-0.7 1.156-0.7 1.652 0 2.478 0.29 2.478 0.87-0.495 0.44-0.826 1.04-0.991 1.82-0.083 0.35-0.151 0.68-0.206 0.99 0.082-0.03 0.178-0.04 0.289-0.04 0.991-0.31 1.789-0.46 2.395-0.46 0.413 0 0.908 1.05 1.486 3.14-0.055 0.22-0.344 0.33-0.867 0.33l-2.106-0.17c-0.44 0-1.019 0.02-1.734 0.05-0.358 1.92-0.592 3.31-0.702 4.17 1.569-0.17 3.056-0.32 4.46-0.46 0.688-0.19 1.445-0.29 2.271-0.29 0.193 0.5 0.427 0.99 0.702 1.49 0.413 0.74 0.661 1.46 0.743 2.15-0.082 0.47-0.234 0.73-0.454 0.78-0.165 0-0.702-0.15-1.611-0.45-0.991-0.33-1.885-0.5-2.684-0.5-3.524 0-8.287 0.26-14.288 0.79-5.2311 0.55-9.168 1.21-11.811 1.98-0.3579 0-0.7571-0.98-1.1976-2.93l0.8673-0.17h1.115c2.0372-0.25 3.9919-0.47 5.864-0.66 0.0275-0.11 0.0551-0.22 0.0826-0.33 0.0275-0.27 0.0413-0.55 0.0413-0.82-0.1927-0.97-0.3854-1.86-0.57814-2.69-1.1563 0.3-2.23 0.65-3.2211 1.03-0.3029 0-0.6608-0.31-1.0737-0.95-0.5231-0.88-0.7847-1.4-0.7847-1.57 0-0.3 0.2891-0.51 0.8672-0.62 1.0737-0.05 2.3126-0.16 3.7167-0.33-0.27532-1.37-0.4818-2.34-0.61944-2.89-0.44051 0.22-0.85346 0.39-1.2389 0.5-0.9086 0.25-1.7482 0.55-2.5191 0.91-0.1377 0-0.2065-0.11-0.2065-0.33 0-0.28 0.3029-0.69 0.9085-1.24 2.2576-2.4 4.1434-4.68 5.6576-6.86 1.7069-2.53 3.0009-4.9 3.8819-7.1 0.1651-0.44 0.3303-0.66 0.4955-0.66m-3.0559 23.7c0.8259-0.08 1.6105-0.16 2.3539-0.24-0.0276-1.68-0.0964-3.13-0.2065-4.34-0.9636 0.16-1.8721 0.33-2.7255 0.5 0.1376 1.34 0.3303 2.71 0.5781 4.08m4.46-0.49c0.7433-0.08 1.4729-0.15 2.1884-0.21 0.028-0.16 0.042-0.36 0.042-0.58l0.206-3.88c-0.5781 0.06-1.17 0.11-1.7757 0.17-0.2753 0.02-0.5644 0.05-0.8672 0.08 0.055 1.4 0.1239 2.88 0.2065 4.42m4.5834-0.46c0.744-0.08 1.473-0.18 2.189-0.29 0.248-1.04 0.482-2.47 0.702-4.29-0.853 0.05-1.789 0.12-2.808 0.21-0.083 1.32-0.124 2.3-0.124 2.93 0 0.47 0.014 0.88 0.041 1.24v0.2m-11.975 4.01c0.46803 0 0.70203 0.11 0.70203 0.33-0.68828 2.01-1.1288 3.41-1.3215 4.21-0.13764 0.77-0.30283 1.47-0.49553 2.11-0.1652 0.55-0.30285 1.13-0.41296 1.73-0.05507 0.47-0.15143 0.7-0.28911 0.7-0.4405 0-0.9911-0.45-1.6518-1.36-0.8535-0.93-1.2802-1.58-1.2802-1.94 0-0.22 0.2202-0.38 0.6607-0.49 0.3855-0.36 0.7571-0.83 1.115-1.41 0.4956-0.91 1.4867-2.2 2.9734-3.88m4.6664 0.5c0.2203 0.13 0.4543 0.59 0.7021 1.36 0.3303 0.77 0.7433 1.47 1.2389 2.1 0.523 0.86 0.8121 1.74 0.8672 2.65-0.0551 0.44-0.2891 0.66-0.7021 0.66-0.7708-0.53-1.4729-0.91-2.1061-1.16-0.6882-0.19-1.0324-1.18-1.0324-2.97 0-0.86 0.1377-1.56 0.413-2.11 0.1927-0.33 0.3992-0.51 0.6194-0.53m6.773-0.34c0.247 0.14 0.509 0.58 0.784 1.33 0.358 0.71 0.826 1.4 1.404 2.06 0.606 0.83 0.923 1.67 0.95 2.52-0.027 0.47-0.261 0.7-0.702 0.7-0.853-0.52-1.624-0.88-2.312-1.07-0.771-0.19-1.157-1.17-1.157-2.93 0-0.8 0.124-1.49 0.372-2.07 0.248-0.33 0.468-0.51 0.661-0.54m4.749-1.19c0.302 0 1.596 0.67 3.882 2.02 0.77 0.58 1.39 0.94 1.858 1.07 0.275 0.33 0.413 1.61 0.413 3.84 0 0.53-0.165 1.13-0.496 1.82-0.303 0.58-0.592 0.87-0.867 0.87-0.193 0-0.399-0.23-0.619-0.7-1.184-2.76-2.478-5.18-3.882-7.27-0.468-0.5-0.73-0.87-0.785-1.12 0-0.35 0.165-0.53 0.496-0.53m-21.805 27.13c0.2202 0 0.6745 0.1 1.3628 0.29 0.2202-0.11 0.4817-0.21 0.7846-0.29 2.6429-0.8 6.3734-1.47 11.191-2.02 3.4143-0.45 6.3043-0.67 8.6723-0.67 3.194 0 5.534 0.42 7.021 1.24 0.908 0.58 1.362 1.12 1.362 1.61 0 0.17-0.082 0.36-0.247 0.58-0.469 0.66-0.826 1.81-1.074 3.43-1.157 6.91-2.244 11.19-3.263 12.84-0.66 1.6-1.156 2.98-1.486 4.13-0.165 0.86-0.51 1.28-1.033 1.28-0.192 0-0.454-0.11-0.784-0.33-0.716-0.66-1.583-1.35-2.602-2.06-0.523-0.33-1.17-0.98-1.941-1.94-1.101 0.11-2.285 0.29-3.5513 0.53-1.4592 0.25-2.8082 0.44-4.0471 0.58-1.7069 0.14-3.4964 0.4-5.3685 0.79-0.13764 0-0.26153-0.05-0.37164-0.13-0.30285 0.03-0.63322 0.07-0.99116 0.13-0.7984 0-1.817-2-3.0559-5.99-1.1563-4.41-1.7344-8.81-1.7344-13.22 0-0.52 0.3854-0.78 1.1563-0.78m4.7903 16.64c0.11011-0.05 0.234-0.1 0.37167-0.12 9.1953-0.97 13.972-1.48 14.33-1.53 0.578 0.11 0.867 0.72 0.867 1.82 0 0.13-0.013 0.26-0.041 0.37 0.743-0.55 1.39-1.79 1.941-3.72 1.376-4.6 2.065-8.42 2.065-11.48-0.055-1.43-1.556-2.15-4.502-2.15-2.037 0-4.817 0.28-8.3414 0.83-3.2762 0.74-6.0568 1.67-8.3418 2.77-0.1927 2.09-0.2891 3.7-0.2891 4.83 0 2.09 0.647 4.88 1.9409 8.38m2.4778-11.73l1.1976 0.21c3.166-0.72 5.5199-1.13 7.062-1.24 1.183-0.16 1.803-0.25 1.858-0.25 0.578 0 1.28 0.31 2.106 0.91 0.688 0.58 1.032 1.09 1.032 1.53 0 0.16-0.192 0.37-0.578 0.62-0.468 0.41-1.266 1.93-2.395 4.54-0.275 0.69-0.55 1.07-0.826 1.16-0.385 0-0.826-0.18-1.321-0.54-2.891 0.5-4.5291 0.87-4.9145 1.12-0.3028 0.13-0.5368 0.2-0.702 0.2-0.5782-0.03-1.2664-1.18-2.0648-3.47-0.6057-1.84-0.9086-3.09-0.9085-3.75-0.0001-0.69 0.1514-1.04 0.4542-1.04m3.3037 5.29c0.4955 0 1.7069-0.17 3.6341-0.5 0.4129-0.02 0.7298-0.2 0.9498-0.53 0.385-0.64 0.578-1.27 0.578-1.9 0-0.88-0.22-1.32-0.661-1.32-0.6328 0-1.5001 0.12-2.6013 0.37-1.349 0.41-2.0235 0.78-2.0235 1.11 0 1.85 0.0413 2.77 0.1239 2.77m11.439 32.25c0.468 0.11 0.95 1.27 1.446 3.47-0.056 0.33-0.372 0.54-0.95 0.62-3.359 1.21-6.291 2.13-8.7964 2.77-0.0826 0.33-0.1514 0.66-0.2065 0.99 0 0.03 0.0138 0.05 0.0413 0.08 0.5506 1.16 2.4366 3.17 5.6576 6.03 3.799 3.22 6.718 5.34 8.755 6.36 1.486 0.6 2.753 1.32 3.799 2.15 0.881 0.52 1.322 0.95 1.322 1.28-0.083 0.35-0.469 0.53-1.157 0.53-3.414 0-6.318-0.22-8.713-0.66-1.349-0.33-2.079-0.91-2.189-1.73 0-1.13-0.248-1.96-0.743-2.48-1.872-2.5-4.502-4.86-7.8879-7.06-0.055-0.03-0.0963-0.06-0.1238-0.08-1.1839 3.08-3.29 5.92-6.3184 8.5-1.1012 0.91-1.8308 1.68-2.1887 2.32-0.1927 0.44-0.3854 0.66-0.5781 0.66-1.4041-0.2-2.5879-0.29-3.5515-0.29-0.6883 0-1.6518-0.26-2.8907-0.79-0.6608-0.33-0.9911-0.58-0.9911-0.74 0-0.33 0.2615-0.54 0.7846-0.62 4.0195-0.55 7.3507-2.2 9.9937-4.96 1.5692-2.01 2.8219-4.92 3.7579-8.75-0.3854 0.05-0.7708 0.11-1.1563 0.16-2.6154 0.34-4.5012 0.78-5.6575 1.33-0.413 0-0.7984-0.91-1.1563-2.73-0.1377-0.96-0.2478-1.66-0.3304-2.11 0.0826-0.57 0.4267-0.89 1.0324-0.95 2.9458-0.11 5.6851-0.35 8.218-0.74 0.5781-3.41 0.8672-6.74 0.8672-9.99l-0.3304-2.36c0-0.49 0.4955-0.75 1.4867-0.78 0.4955 0 1.1975 0.12 2.1056 0.37 1.019 0.28 1.528 0.65 1.528 1.12-0.055 0.13-0.289 0.38-0.702 0.74-0.468 0.55-0.839 1.33-1.115 2.35-0.082 2.51-0.2887 5.11-0.619 7.81-0.0276 0.08-0.0414 0.15-0.0413 0.2 1.8723-0.35 3.6063-0.81 5.2033-1.36 1.129-0.38 1.927-0.6 2.395-0.66m-0.537 45.427c-0.853 0-2.381 0.096-4.584 0.289-0.247 1.597-0.55 3.373-0.908 5.327-0.33 1.79-0.688 3.332-1.074 4.625 1.542 0.799 3.483 2.175 5.823 4.13 1.376 1.211 2.725 1.969 4.047 2.271 0.743 0.193 2.175 0.799 4.295 1.817 1.294 0.524 2.395 1.294 3.304 2.313-0.001 0.578-1.528 0.867-4.584 0.867-2.396-0.495-4.295-0.771-5.699-0.826-0.826 0-1.294-0.399-1.404-1.197-0.055-1.597-0.634-2.781-1.735-3.552-1.073-0.826-2.244-1.5-3.51-2.023-0.385-0.138-0.9635-0.399-1.7344-0.785-0.0826 0.165-0.1789 0.33-0.289 0.496-1.0462 1.844-2.5604 3.001-4.5426 3.469-2.0098 0.66-3.3037 1.266-3.8819 1.817-0.44048 0.413-1.1012 0.619-1.9822 0.619-3.2211 0-5.2584-0.482-6.1118-1.445-0.4405-0.634-0.7847-1.06-1.0324-1.281-0.3304-0.192-0.4956-0.385-0.4956-0.578 0-0.33 0.2891-0.495 0.8672-0.495 0.3304 0 0.8672 0.069 1.6106 0.206 1.2939 0.303 2.4089 0.455 3.345 0.455 1.1563 0 2.3263-0.29 3.5102-0.868 2.2024-0.771 3.6891-1.596 4.4599-2.477 0.3855-0.358 0.7571-0.909 1.115-1.652-0.6882-0.358-1.4316-0.771-2.23-1.239-1.0461-0.578-1.8583-0.867-2.4364-0.867-0.41301-0.111-0.61949-1.115-0.61948-3.015-0.00001-1.294 0.38542-1.941 1.1563-1.941 0.4405 0 0.9636 0.427 1.5693 1.28 0.5781 0.964 1.6518 1.914 3.2211 2.85 0.1376 0.11 0.289 0.206 0.4542 0.289 0.3029-0.854 0.5919-1.831 0.8673-2.932 0.3303-1.294 0.6607-3.07 0.9911-5.328-0.2478 0.028-0.4818 0.042-0.7021 0.042-3.5239 0.468-6.5523 1.225-9.0851 2.271-0.3029 0-0.7296-0.358-1.2802-1.074-0.5506-1.046-0.826-1.665-0.8259-1.858-0.0001-0.358 0.3166-0.592 0.9498-0.702 1.7619-0.055 4.0195-0.427 6.7725-1.115 1.4041-0.248 2.9321-0.523 4.5839-0.826 0.2478-2.01 0.4818-4.281 0.7021-6.814-0.0001-0.33-0.0689-0.784-0.2065-1.363-0.2753-0.413-0.413-0.715-0.413-0.908 0-0.33 0.4405-0.496 1.3211-0.496 0.826 0 1.707 0.193 2.643 0.578 0.661 0.166 0.991 0.345 0.991 0.537-0.055 0.166-0.137 0.372-0.247 0.62-0.358 0.33-0.592 1.294-0.702 2.891-0.055 1.238-0.179 2.711-0.372 4.418 1.432-0.137 2.67-0.399 3.717-0.784 0.881-0.331 1.555-0.496 2.023-0.496 0.633 0 1.349 1.363 2.148 4.088-0.056 0.358-0.372 0.537-0.95 0.537l-2.85-0.165m-1.28 35.845c0.193 0 0.358 0.551 0.496 1.652 0 0.826-0.234 1.321-0.702 1.487-2.588 1.294-4.557 2.216-5.9057 2.766-0.1377 1.212-0.2753 2.341-0.413 3.387 3.0837-0.633 5.7397-1.363 7.9697-2.189 0.413 0.055 1.143 1.418 2.189 4.088-0.082 0.579-0.413 0.868-0.991 0.868-3.551 0.247-6.58 0.523-9.0851 0.826 0.7709 1.183 2.5881 3.028 5.4511 5.533 3.799 3.166 6.718 5.259 8.755 6.277 1.486 0.551 2.753 1.239 3.799 2.065 0.881 0.551 1.322 0.991 1.322 1.322-0.083 0.33-0.469 0.495-1.157 0.495-3.414 0-6.318-0.206-8.713-0.619-1.349-0.358-2.079-0.923-2.189-1.693 0-1.157-0.248-1.996-0.743-2.52-1.872-2.477-4.502-4.804-7.8879-6.979-0.1652-0.082-0.3166-0.165-0.4542-0.247-0.6332 1.624-1.3766 2.918-2.23 3.881-0.881 1.102-1.4454 2.299-1.6932 3.593-1.8996 1.377-3.813 2.423-5.7401 3.139-1.4316 0.303-2.6843 0.454-3.758 0.454-1.2113 0-1.817-0.179-1.817-0.537 0-0.055 0.4542-0.316 1.3628-0.784 3.5239-1.762 6.332-3.758 8.4244-5.988 1.4866-1.68 2.5879-3.924 3.3037-6.732-0.881 0.165-1.6519 0.344-2.3126 0.537-1.9547 0.496-3.4964 0.743-4.6252 0.743-0.468 0-1.2526-1.032-2.3539-3.097 0-0.413 0.234-0.647 0.7021-0.702 3.4138-0.303 6.511-0.674 9.2916-1.115 0.1927-1.073 0.3441-2.244 0.4543-3.51-0.0551-0.027-0.0964-0.041-0.1239-0.041-0.6883-0.083-1.1563-0.124-1.4041-0.124-0.3854 0.082-1.0186 0.22-1.8996 0.413-0.7984 0.358-1.4316 0.564-1.8996 0.619-0.27535 0-0.48183-0.413-0.61948-1.239-0.055069-0.715-0.19272-1.349-0.41296-1.899-0.30285-0.496-0.45427-0.95-0.45426-1.363 0.02752-0.33 0.20647-0.551 0.53685-0.661l4.749 0.165c0.5781 0 1.1701-0.027 1.7758-0.082 0.0275-1.129 0.0412-2.326 0.0413-3.593l-0.4956-6.401c0.2202-0.55 0.6745-0.826 1.3628-0.826 2.4227 0.138 3.6339 0.482 3.6339 1.033-0.523 1.899-0.9222 4.501-1.1975 7.805-0.0275 0.468-0.055 0.936-0.0825 1.404 0.964-0.248 1.968-0.551 3.015-0.909 1.486-0.468 2.395-0.702 2.725-0.702" transform="scale(-.80681 -1.2395)"/>
  </g>
  <metadata>
    <rdf:RDF>
      <cc:Work>
        <dc:format>image/svg+xml</dc:format>
        <dc:type rdf:resource="http://purl.org/dc/dcmitype/StillImage"/>
        <cc:license rdf:resource="http://creativecommons.org/licenses/publicdomain/"/>
        <dc:publisher>
          <cc:Agent rdf:about="http://openclipart.org/">
            <dc:title>Openclipart</dc:title>
          </cc:Agent>
        </dc:publisher>
        <dc:title>chinese chess plate</dc:title>
        <dc:date>2007-10-07T13:32:09</dc:date>
        <dc:description>chinese chess plate.&#xD;\n?????</dc:description>
        <dc:source>http://openclipart.org/detail/6704/chinese-chess-plate-by-antontw-6704</dc:source>
        <dc:creator>
          <cc:Agent>
            <dc:title>antontw</dc:title>
          </cc:Agent>
        </dc:creator>
        <dc:subject>
          <rdf:Bag>
            <rdf:li>board</rdf:li>
            <rdf:li>chinese chess</rdf:li>
            <rdf:li>clip art</rdf:li>
            <rdf:li>clipart</rdf:li>
            <rdf:li>image</rdf:li>
            <rdf:li>media</rdf:li>
            <rdf:li>png</rdf:li>
            <rdf:li>public domain</rdf:li>
            <rdf:li>svg</rdf:li>
            <rdf:li>toy</rdf:li>
          </rdf:Bag>
        </dc:subject>
      </cc:Work>
      <cc:License rdf:about="http://creativecommons.org/licenses/publicdomain/">
        <cc:permits rdf:resource="http://creativecommons.org/ns#Reproduction"/>
        <cc:permits rdf:resource="http://creativecommons.org/ns#Distribution"/>
        <cc:permits rdf:resource="http://creativecommons.org/ns#DerivativeWorks"/>
      </cc:License>
    </rdf:RDF>
  </metadata>
</svg>
